<?xml version="1.0" standalone="no"?>
<!DOCTYPE svg PUBLIC "-//W3C//DTD SVG 20010904//EN"
 "http://www.w3.org/TR/2001/REC-SVG-20010904/DTD/svg10.dtd">
<svg version="1.0" xmlns="http://www.w3.org/2000/svg"
 width="1024.000000pt" height="1024.000000pt" viewBox="0 0 1024.000000 1024.000000"
 preserveAspectRatio="xMidYMid meet">

<g transform="translate(0.000000,1024.000000) scale(0.100000,-0.100000)"
fill="#000000" stroke="none">
<path d="M5152 9819 c-280 -13 -550 -56 -847 -134 -421 -110 -765 -250 -1081
-442 -134 -81 -372 -252 -410 -295 -12 -12 -45 -79 -74 -148 -28 -69 -58 -135
-66 -147 -24 -37 -1 -26 62 30 32 28 94 79 137 112 43 33 99 77 125 97 26 21
112 81 192 135 360 243 895 455 1355 538 44 8 89 17 100 20 185 48 178 48 685
52 509 5 638 -1 766 -36 38 -11 110 -27 160 -35 151 -27 528 -136 609 -178 28
-14 73 -32 100 -41 73 -22 422 -202 553 -285 116 -74 208 -140 368 -264 153
-118 384 -350 526 -528 328 -412 565 -876 733 -1435 27 -89 28 -91 113 -172
48 -45 88 -80 90 -78 9 8 -54 274 -103 435 -69 228 -123 365 -230 585 -111
227 -254 463 -392 647 -158 210 -233 296 -394 453 -619 598 -1386 968 -2239
1080 -158 21 -600 49 -670 43 -8 0 -84 -4 -168 -9z"/>
<path d="M2201 9755 c-143 -32 -295 -126 -441 -274 -263 -267 -403 -569 -450
-966 -35 -293 -72 -479 -135 -671 l-35 -106 27 -54 c14 -30 29 -52 31 -49 19
19 117 352 143 488 11 56 21 103 24 105 2 2 17 -23 34 -57 40 -78 90 -127 163
-160 l58 -27 -101 -79 c-95 -75 -299 -276 -299 -295 0 -10 40 -80 45 -80 2 0
65 61 140 135 173 171 272 245 465 347 283 149 446 274 570 438 116 154 194
308 252 497 42 138 42 138 42 298 0 173 -13 232 -71 335 -89 157 -254 220
-462 175z m39 -153 c-22 -34 -40 -65 -40 -71 0 -5 -3 -11 -7 -13 -12 -5 -53
-88 -44 -88 4 0 14 12 22 28 24 46 131 206 147 220 9 6 22 12 30 12 12 0 12
-4 -1 -22 -9 -13 -43 -66 -76 -118 -32 -52 -85 -119 -116 -149 -33 -30 -68
-75 -81 -105 -13 -28 -51 -89 -84 -136 -33 -47 -79 -116 -102 -155 -23 -38
-59 -93 -80 -121 -21 -28 -38 -54 -38 -58 0 -4 -11 -22 -25 -40 -14 -18 -25
-38 -25 -44 0 -7 -4 -12 -10 -12 -5 0 -10 -5 -10 -11 0 -6 -21 -41 -47 -78
-62 -85 -127 -186 -152 -236 -12 -22 -32 -53 -45 -70 l-24 -29 -7 62 c-7 60
-6 63 24 97 39 44 40 58 3 22 -15 -15 -31 -27 -35 -27 -8 0 6 17 90 114 34 39
69 84 77 101 40 85 51 105 58 105 5 0 8 6 8 13 0 6 11 25 25 41 14 16 25 36
25 43 0 8 6 13 13 11 15 -6 22 -48 8 -48 -6 0 -11 -7 -11 -15 0 -8 -4 -15 -10
-15 -5 0 -17 -17 -27 -37 -9 -21 -40 -74 -67 -118 -27 -44 -69 -116 -93 -160
-24 -43 -53 -89 -65 -102 -12 -13 -16 -23 -10 -23 14 0 52 51 84 115 14 28 42
74 62 104 20 30 53 84 73 120 21 36 41 68 45 69 4 2 8 10 8 18 0 8 5 14 10 14
6 0 10 7 10 15 0 9 7 18 15 21 8 4 15 15 15 25 0 10 5 19 10 19 6 0 10 7 10
15 0 7 7 18 16 23 9 5 15 12 13 16 -1 5 3 15 10 25 6 9 29 41 51 71 21 30 65
97 97 148 32 52 77 123 101 159 23 36 42 68 42 71 0 24 -100 -118 -180 -257
-8 -15 -38 -58 -65 -96 -62 -87 -99 -144 -108 -168 -4 -10 -13 -17 -20 -15
-22 8 -19 37 7 65 14 15 26 33 26 40 0 7 6 16 13 20 15 10 67 79 67 90 1 4 25
46 55 93 30 47 69 110 86 140 63 107 150 209 172 202 5 -1 6 2 3 7 -5 8 17 42
56 85 10 11 18 23 18 27 0 4 8 15 18 25 35 35 24 -11 -18 -74z m170 79 c0 -5
-15 -28 -34 -52 -18 -24 -42 -62 -53 -84 -49 -96 -89 -163 -126 -210 l-40 -50
51 50 c28 28 51 58 52 68 0 9 5 17 10 17 6 0 10 5 10 11 0 6 16 33 35 59 19
26 32 49 30 52 -3 3 13 27 35 54 22 27 40 57 40 66 0 20 1 21 24 12 9 -3 16
-14 16 -23 0 -18 -81 -153 -113 -188 -11 -12 -25 -31 -31 -41 -16 -29 -104
-145 -162 -216 -58 -71 -124 -161 -124 -169 0 -19 -279 -428 -349 -513 -15
-17 -39 -48 -56 -70 -16 -21 -57 -67 -92 -101 -79 -77 -83 -93 -5 -23 66 61
130 134 162 184 12 20 25 36 28 36 4 0 22 23 41 50 19 28 38 50 43 50 4 0 8 9
8 20 0 11 4 20 9 20 10 0 81 105 199 295 45 72 109 164 144 206 87 106 205
268 268 369 63 102 58 96 71 83 14 -14 2 -36 -58 -111 -26 -31 -39 -51 -30
-43 36 28 14 -9 -50 -90 -37 -46 -72 -88 -79 -94 -14 -12 -154 -202 -154 -209
0 -2 -25 -40 -55 -84 -30 -44 -55 -87 -55 -95 0 -16 -176 -259 -192 -265 -4
-2 -8 -9 -8 -16 0 -7 -29 -48 -65 -91 -36 -43 -65 -81 -65 -84 0 -3 -30 -38
-66 -76 -36 -38 -75 -88 -86 -110 -11 -22 -28 -49 -37 -60 -15 -19 -15 -19 4
-3 11 9 29 34 40 55 10 21 51 72 90 113 38 42 97 112 130 155 33 44 65 86 72
93 7 7 27 33 44 57 18 25 36 45 41 45 4 0 8 5 8 11 0 7 15 30 33 53 45 56 81
116 73 123 -3 4 0 13 8 22 14 17 147 211 180 265 17 27 106 135 166 202 10 11
30 41 43 67 46 86 90 148 100 138 5 -5 -6 -31 -29 -65 -20 -31 -34 -59 -31
-62 7 -8 -38 -74 -85 -125 -68 -74 -328 -428 -328 -447 0 -27 -91 -181 -112
-190 -5 -2 -8 -10 -8 -18 0 -8 -4 -14 -9 -14 -5 0 -11 -10 -13 -22 -2 -16 -9
-22 -20 -20 -22 4 -23 -5 -4 -24 18 -17 26 -18 26 -1 0 23 25 67 38 67 7 0 11
4 8 9 -3 4 3 19 14 31 11 13 43 68 71 124 28 56 58 110 68 122 24 31 134 179
151 204 31 45 117 157 168 219 32 39 51 69 47 78 -3 9 11 36 32 64 l38 50 17
-23 c25 -33 22 -46 -15 -82 -17 -17 -48 -51 -67 -76 -19 -25 -45 -56 -58 -70
-12 -14 -55 -69 -95 -124 -39 -54 -97 -131 -128 -170 -74 -95 -224 -323 -164
-251 28 34 214 289 280 383 33 48 127 165 145 182 3 3 17 21 30 40 13 19 38
49 56 66 17 17 34 37 36 45 4 11 8 11 18 2 16 -14 2 -37 -74 -128 -48 -57
-111 -155 -152 -238 -28 -54 -181 -275 -224 -322 -37 -40 -140 -189 -140 -203
0 -4 -20 -30 -45 -57 -25 -28 -45 -53 -45 -57 0 -16 20 -7 30 13 7 11 14 18
17 15 6 -6 28 25 39 57 3 9 10 17 15 17 5 0 9 4 9 9 0 14 89 142 139 199 25
30 52 66 60 80 8 15 27 43 42 63 53 68 102 144 126 198 47 104 190 291 224
291 10 0 19 -7 19 -15 0 -29 -34 -101 -80 -170 -44 -65 -152 -237 -175 -278
-5 -9 -32 -52 -59 -95 -115 -182 -144 -229 -160 -262 -9 -19 -36 -60 -61 -90
-137 -167 -324 -434 -312 -446 5 -6 40 42 90 123 35 58 191 264 235 310 15 17
40 54 56 84 26 49 121 202 168 271 10 15 18 32 18 38 0 5 5 10 10 10 6 0 10 5
10 12 0 6 23 44 50 85 28 40 50 76 50 79 0 3 25 44 55 90 30 47 67 108 82 137
19 37 28 47 31 34 4 -18 -6 -51 -31 -107 -6 -14 -48 -81 -92 -150 -108 -167
-130 -202 -137 -220 -4 -8 -38 -60 -77 -115 -39 -55 -84 -125 -101 -155 -17
-30 -75 -113 -131 -185 -188 -244 -204 -265 -207 -278 -5 -16 32 27 133 158
47 61 111 142 141 180 31 39 65 87 75 108 26 51 109 171 120 175 5 2 9 7 9 12
0 11 151 262 178 295 7 9 36 55 69 110 7 11 18 33 24 48 9 22 14 26 20 15 15
-23 10 -96 -10 -149 -11 -28 -17 -57 -14 -64 6 -19 -31 -129 -77 -230 -60
-130 -212 -348 -310 -446 -91 -91 -185 -169 -202 -169 -5 0 2 12 15 28 106
115 269 319 327 407 29 44 60 91 69 105 33 49 102 191 98 203 -2 6 -18 -17
-35 -52 -27 -53 -155 -255 -173 -271 -3 -3 -16 -23 -29 -45 -34 -58 -111 -155
-221 -280 -95 -108 -151 -165 -134 -135 47 82 103 156 154 206 78 75 287 384
478 707 38 63 67 127 59 127 -4 0 -83 -128 -146 -235 -29 -49 -87 -141 -129
-204 -42 -63 -81 -121 -86 -130 -73 -116 -139 -205 -192 -260 -35 -36 -82 -96
-103 -133 -22 -37 -55 -79 -74 -95 -34 -27 -152 -80 -161 -72 -7 7 231 368
272 414 8 8 9 15 3 17 -6 2 7 28 28 58 50 70 135 233 121 228 -7 -2 -27 -33
-46 -68 -19 -36 -57 -99 -85 -140 -28 -43 -44 -76 -38 -78 7 -3 4 -12 -8 -26
-11 -11 -54 -73 -96 -136 -178 -268 -187 -280 -206 -280 -25 0 -26 15 -1 32
10 7 35 40 56 73 20 33 54 85 75 115 21 30 39 63 39 73 1 9 6 17 11 17 6 0 14
8 17 18 4 9 12 22 17 29 33 37 37 45 32 50 -3 4 -7 4 -9 2 -36 -49 -74 -95
-81 -100 -5 -4 -6 -14 -3 -23 3 -8 1 -19 -6 -23 -7 -5 -40 -51 -75 -103 -72
-110 -109 -156 -117 -148 -9 8 139 239 157 246 12 5 10 32 -2 32 -5 0 -10 -4
-10 -10 0 -5 -19 -34 -41 -64 -23 -30 -60 -88 -83 -128 -38 -67 -44 -73 -71
-70 -17 1 -38 12 -47 24 -10 11 -18 17 -18 12 0 -4 -5 -3 -11 3 -17 17 58 140
137 227 82 90 177 222 171 238 -2 7 -11 -2 -21 -20 -25 -49 -101 -148 -171
-222 -33 -36 -76 -96 -95 -133 -19 -37 -39 -67 -43 -67 -9 0 -67 119 -67 139
0 7 16 35 35 61 19 26 35 52 35 57 0 5 27 48 60 96 33 47 60 90 60 96 0 5 6
14 14 18 7 4 22 24 33 43 27 50 97 154 106 158 4 2 7 10 7 18 0 8 7 17 15 20
8 4 15 10 15 15 0 9 36 65 50 79 3 3 16 25 29 50 13 25 36 61 51 80 43 56 150
228 150 242 1 17 67 94 75 87 3 -4 -10 -25 -30 -49 -19 -23 -35 -45 -35 -48 0
-15 86 85 106 123 65 123 157 261 175 262 10 1 19 -2 19 -6z m-186 -23 c-12
-20 -86 -111 -104 -128 -37 -34 -94 -116 -214 -308 -69 -111 -137 -215 -151
-230 -14 -15 -33 -43 -43 -62 -9 -19 -37 -64 -62 -100 -26 -36 -55 -87 -64
-113 -17 -45 -74 -122 -116 -157 -10 -8 -28 -31 -40 -50 l-22 -35 6 55 c15
149 26 192 56 227 17 19 52 78 79 131 45 89 80 146 81 131 1 -18 -114 -256
-148 -307 -23 -33 -42 -69 -42 -78 0 -29 81 93 115 175 18 42 46 108 63 146
16 39 36 85 42 103 7 18 28 58 48 90 71 117 91 152 88 152 -6 0 -99 -138 -140
-210 -21 -35 -48 -77 -61 -91 -12 -15 -45 -74 -73 -132 -43 -88 -72 -134 -72
-114 0 16 55 167 88 243 81 188 267 432 387 510 17 10 59 40 94 67 73 54 98
61 55 16 -27 -29 -27 -30 -5 -18 14 8 40 28 59 44 54 48 115 75 96 43z"/>
<path d="M2121 9476 c-13 -20 -21 -39 -18 -42 3 -3 11 5 18 18 6 12 16 26 22
29 5 4 7 13 5 20 -2 7 -14 -3 -27 -25z"/>
<path d="M2537 9528 c-40 -55 -42 -65 -3 -24 32 36 44 56 32 56 -3 0 -16 -15
-29 -32z"/>
<path d="M2562 9353 c-21 -32 -58 -92 -82 -133 -24 -41 -76 -124 -115 -185
-40 -60 -89 -136 -109 -167 -21 -32 -41 -58 -47 -58 -5 0 -9 -5 -9 -11 0 -6 7
-8 15 -5 10 4 7 -6 -9 -27 -14 -18 -37 -60 -52 -93 -14 -32 -41 -81 -60 -107
-20 -27 -34 -53 -32 -59 5 -14 86 103 100 144 6 18 26 57 45 86 18 29 33 57
33 63 0 7 15 32 33 58 46 64 177 271 177 280 0 4 24 46 54 93 77 122 109 178
102 178 -3 0 -23 -26 -44 -57z"/>
<path d="M2110 9264 c-17 -20 -29 -39 -26 -42 3 -3 7 -3 9 -1 30 37 58 79 54
79 -3 0 -19 -16 -37 -36z"/>
<path d="M2134 9236 c-28 -24 -70 -71 -94 -103 -24 -32 -55 -70 -69 -85 -25
-28 -18 -39 9 -15 8 6 -2 -7 -22 -30 -20 -23 -60 -78 -89 -122 -29 -45 -57
-81 -61 -81 -4 0 -8 -5 -8 -11 0 -5 -21 -42 -46 -80 -25 -39 -44 -75 -42 -81
2 -6 19 15 38 46 19 30 40 54 46 52 6 -2 10 6 10 18 -1 12 4 20 12 18 6 -1 12
6 12 17 0 10 7 24 15 31 8 7 15 18 15 25 0 8 3 15 8 17 4 2 27 32 52 68 24 36
52 74 62 85 10 10 17 24 15 30 -4 11 50 84 116 155 94 101 100 115 21 46z"/>
<path d="M2389 9223 c-13 -21 -27 -39 -31 -41 -4 -2 -8 -8 -8 -13 0 -13 -165
-239 -240 -330 -16 -20 -46 -60 -66 -90 -21 -30 -57 -80 -81 -112 -23 -31 -43
-60 -43 -63 0 -2 -9 -14 -20 -26 -11 -12 -20 -29 -20 -37 0 -19 26 8 59 62 12
20 27 37 32 37 5 0 9 7 9 15 0 9 7 18 15 21 8 4 15 11 16 18 0 12 28 51 185
258 117 155 173 236 203 296 26 52 21 55 -10 5z"/>
<path d="M2586 9007 c-26 -43 -34 -70 -17 -51 16 16 52 86 47 91 -2 2 -16 -15
-30 -40z"/>
<path d="M1989 8903 c-13 -16 -12 -17 4 -4 9 7 17 15 17 17 0 8 -8 3 -21 -13z"/>
<path d="M1850 8610 c0 -5 5 -10 10 -10 6 0 10 5 10 10 0 6 -4 10 -10 10 -5 0
-10 -4 -10 -10z"/>
<path d="M1635 8538 c-27 -39 -63 -86 -79 -105 -16 -18 -26 -36 -24 -39 6 -5
67 67 113 134 17 24 36 52 44 63 7 10 10 19 5 19 -5 -1 -31 -33 -59 -72z"/>
<path d="M1857 8559 c-15 -25 -27 -49 -27 -53 0 -5 -13 -25 -30 -46 -16 -21
-30 -42 -30 -47 0 -5 -11 -16 -25 -23 -13 -7 -33 -24 -42 -38 -10 -13 -30 -40
-45 -59 -36 -46 -101 -163 -95 -170 3 -2 24 27 47 66 23 39 46 71 51 71 21 0
16 -24 -21 -84 -45 -73 -49 -88 -20 -61 11 10 20 22 20 26 0 4 13 27 28 51 40
60 45 77 21 71 -11 -3 -19 0 -19 8 0 17 42 79 55 79 13 1 87 96 109 140 22 46
39 73 50 81 5 4 6 13 4 20 -3 8 -16 -6 -31 -32z"/>
<path d="M1905 8490 c-3 -5 1 -10 10 -10 9 0 13 5 10 10 -3 6 -8 10 -10 10 -2
0 -7 -4 -10 -10z"/>
<path d="M1960 8490 c0 -5 5 -10 10 -10 6 0 10 5 10 10 0 6 -4 10 -10 10 -5 0
-10 -4 -10 -10z"/>
<path d="M1855 8474 c3 -12 -1 -27 -10 -34 -8 -7 -15 -19 -15 -26 0 -8 -4 -14
-10 -14 -15 0 -53 -41 -45 -48 4 -4 14 2 22 13 11 14 17 16 20 8 8 -22 26 -14
20 8 -3 12 0 22 9 26 8 3 14 14 14 25 0 14 5 18 15 14 9 -3 15 0 15 9 0 8 -6
15 -14 15 -8 0 -17 6 -20 13 -3 6 -4 3 -1 -9z"/>
<path d="M1750 8330 c0 -5 5 -10 10 -10 6 0 10 5 10 10 0 6 -4 10 -10 10 -5 0
-10 -4 -10 -10z"/>
<path d="M1720 8298 c-12 -22 -12 -22 6 -6 10 10 15 20 12 24 -4 3 -12 -5 -18
-18z"/>
<path d="M1512 8283 c-34 -50 -35 -59 -4 -23 29 32 38 50 28 50 -3 0 -13 -12
-24 -27z"/>
<path d="M2038 9521 c-18 -22 -49 -65 -68 -98 -19 -32 -52 -80 -72 -108 -20
-27 -61 -92 -90 -144 -29 -53 -59 -103 -66 -111 -35 -39 -62 -76 -62 -83 0 -5
-11 -23 -25 -41 -14 -18 -25 -38 -25 -44 0 -6 -3 -12 -7 -14 -14 -6 -44 -68
-34 -68 6 0 11 5 11 10 0 6 13 28 29 51 17 22 32 46 35 52 3 9 8 8 16 -3 9
-12 10 -11 5 6 -3 12 1 34 10 50 8 16 15 25 15 19 0 -5 10 6 22 25 12 19 25
37 29 40 3 3 28 43 54 90 27 47 74 123 105 170 91 135 129 193 147 218 25 36
7 25 -29 -17z"/>
<path d="M1998 9529 c-31 -33 -111 -159 -106 -165 3 -3 25 26 48 63 23 37 54
80 68 96 14 15 22 27 16 26 -5 0 -17 -9 -26 -20z"/>
<path d="M1880 9404 c-34 -66 -105 -188 -166 -291 -23 -37 -45 -79 -48 -93 -4
-14 10 7 31 45 21 39 52 90 69 115 55 81 157 271 149 278 -2 2 -18 -22 -35
-54z"/>
<path d="M1524 8662 c-42 -59 -65 -95 -47 -77 23 25 95 126 92 129 -2 2 -22
-21 -45 -52z"/>
<path d="M4677 9568 c-45 -29 130 -38 767 -38 466 0 690 10 710 30 6 6 6 10 1
11 -64 5 -1470 2 -1478 -3z"/>
<path d="M4330 9460 l-35 -6 30 -10 c39 -12 2029 -12 2110 0 45 6 55 10 40 17
-24 9 -2096 9 -2145 -1z"/>
<path d="M4183 9360 c-111 -3 -186 -9 -193 -16 -15 -15 610 -24 1580 -23 778
0 1155 9 1200 27 l25 11 -30 2 c-60 5 -2406 4 -2582 -1z"/>
<path d="M4870 9243 c-652 -2 -1192 -6 -1200 -9 -63 -24 94 -27 1584 -28 1517
-1 1798 3 1831 27 17 13 -175 14 -2215 10z"/>
<path d="M3507 9128 c-7 -4 -4 -10 8 -15 27 -11 3546 -10 3658 0 49 5 85 12
82 15 -9 9 -3734 9 -3748 0z"/>
<path d="M7020 9040 c-151 -4 -519 -9 -817 -11 -299 -2 -543 -7 -543 -11 0 -4
19 -10 43 -13 56 -8 843 -11 1344 -5 364 5 400 6 392 21 -8 16 -77 31 -123 27
-12 -1 -145 -4 -296 -8z"/>
<path d="M3390 9034 c-85 -10 -103 -15 -92 -26 15 -15 1784 -23 1812 -8 58 31
19 33 -622 29 -354 -2 -737 0 -853 3 -115 3 -226 4 -245 2z m178 -11 c-21 -2
-57 -2 -80 0 -24 2 -7 4 37 4 44 0 63 -2 43 -4z"/>
<path d="M5353 8981 c-24 -4 -46 -10 -49 -14 -4 -4 1 -30 11 -59 11 -34 20
-94 23 -164 5 -139 -12 -186 -97 -267 -61 -58 -154 -112 -178 -103 -11 5 -10
-1 4 -26 24 -41 120 -111 191 -139 74 -29 197 -32 263 -6 45 17 46 19 53 70 3
29 6 88 6 132 1 178 38 300 116 378 l38 37 -40 41 c-89 92 -225 140 -341 120z"/>
<path d="M5223 8935 c-74 -31 -156 -133 -194 -241 -16 -48 -20 -77 -17 -152 5
-118 13 -128 85 -107 52 15 133 78 173 135 44 62 45 182 2 322 l-18 56 -31
-13z"/>
<path d="M3260 8900 c-302 -10 -12 -16 875 -19 765 -3 862 -1 880 13 18 14
-56 15 -790 13 -445 -1 -880 -4 -965 -7z"/>
<path d="M5960 8900 l-165 -5 94 -7 c116 -10 1181 -10 1499 -1 450 12 200 22
-528 21 -404 -1 -809 -5 -900 -8z"/>
<path d="M4620 8798 c-140 -4 -566 -6 -946 -2 -437 3 -694 2 -698 -4 -3 -5 11
-12 32 -16 20 -3 463 -6 984 -6 937 0 947 0 958 20 10 19 8 20 -32 18 -24 -1
-158 -5 -298 -10z"/>
<path d="M5860 8799 c0 -29 38 -30 957 -27 510 2 934 7 941 12 8 4 10 12 5 17
-4 4 -258 4 -563 -1 -305 -6 -732 -7 -948 -2 -215 4 -392 4 -392 1z"/>
<path d="M5734 8735 c-33 -22 -81 -104 -99 -168 -13 -44 -16 -88 -13 -187 l3
-129 40 23 c55 32 120 130 135 203 14 65 8 167 -12 227 -15 46 -25 52 -54 31z"/>
<path d="M3073 8663 c-139 -2 -253 -7 -253 -11 0 -9 2066 -9 2076 1 4 4 -267
7 -603 7 -335 0 -690 2 -789 3 -98 2 -293 2 -431 0z"/>
<path d="M6015 8660 c-172 -9 928 -21 1400 -16 248 3 474 5 504 6 30 0 51 3
47 7 -8 8 -1793 11 -1951 3z"/>
<path d="M2703 8552 c-35 -1 -63 -7 -63 -11 0 -14 515 -18 1404 -13 739 4 846
7 846 20 0 12 -18 14 -127 8 -142 -8 -1946 -12 -1978 -5 -11 3 -48 3 -82 1z"/>
<path d="M7317 8543 c12 -10 89 -13 298 -13 317 0 476 8 451 22 -10 6 -176 8
-391 6 -303 -2 -372 -5 -358 -15z"/>
<path d="M5930 8542 c0 -5 254 -12 564 -16 482 -6 569 -5 598 8 29 13 -33 14
-564 15 -329 1 -598 -3 -598 -7z"/>
<path d="M7161 8475 c-18 -25 -30 -49 -26 -54 3 -5 5 -578 5 -1273 1 -1731 1
-1708 -7 -1708 -5 0 -7 645 -5 1433 2 1351 0 1538 -16 1536 -4 0 -20 -16 -36
-35 -27 -33 -28 -40 -29 -132 -1 -90 -1 -91 -4 -19 -2 42 -7 77 -11 77 -4 0
-18 -9 -30 -18 -17 -13 -26 -34 -32 -73 -4 -30 -8 -46 -9 -36 -1 23 -13 22
-38 -5 -38 -43 -43 -65 -45 -215 l-2 -148 -6 144 -5 144 -37 -42 c-37 -40 -41
-50 -40 -101 l1 -25 -7 24 c-7 24 -8 24 -41 -14 -26 -30 -32 -44 -27 -66 3
-17 1 -29 -5 -29 -6 0 -7 5 -4 10 3 6 -3 10 -14 10 -26 0 -41 -28 -42 -82 -1
-24 -4 -33 -6 -20 -3 16 -9 22 -20 18 -8 -3 -17 -6 -19 -6 -2 0 -4 -7 -4 -15
0 -8 -13 -27 -29 -41 -16 -14 -35 -39 -41 -55 -11 -26 -17 -31 -36 -28 -11 1
-24 -25 -24 -47 0 -15 -8 -24 -25 -28 -16 -4 -25 -13 -25 -27 0 -11 -7 -22
-15 -25 -10 -4 -13 -13 -9 -27 5 -17 3 -19 -15 -14 -14 3 -21 1 -19 -8 3 -13
-39 -68 -109 -142 -27 -27 -43 -53 -43 -68 0 -18 -5 -25 -20 -25 -14 0 -22
-10 -28 -32 -6 -23 -19 -38 -47 -53 -50 -25 -54 -44 -54 -262 -1 -191 4 -186
-114 -126 -39 20 -141 65 -226 99 l-154 63 -77 -82 c-42 -45 -116 -127 -165
-182 -345 -390 -799 -862 -1127 -1171 l-127 -119 -6 -75 c-4 -41 -11 -82 -15
-90 -12 -24 -22 -128 -11 -110 7 10 11 1 14 -35 l3 -50 2 48 c1 26 5 47 10 47
4 0 7 -19 5 -42 -2 -41 -1 -42 5 -8 4 20 8 -31 8 -118 1 -84 -3 -155 -7 -158
-5 -3 -9 48 -9 112 0 65 -3 115 -6 111 -4 -3 -7 -59 -7 -124 l0 -118 -6 117
c-3 64 -10 120 -14 125 -5 4 -7 -48 -5 -116 l3 -124 -27 -8 c-25 -7 -27 -5
-31 30 -3 32 -4 30 -5 -11 -1 -27 1 -48 6 -48 4 0 27 5 52 11 25 6 95 19 155
30 61 10 166 33 235 49 69 17 175 41 235 55 61 14 214 50 340 80 127 31 275
65 330 76 55 10 139 31 187 45 86 25 91 25 230 14 356 -27 321 -29 533 29 201
55 408 113 747 210 l207 59 238 -48 c131 -26 319 -66 418 -89 99 -22 293 -63
430 -91 138 -28 315 -67 395 -85 214 -51 359 -83 504 -110 71 -14 161 -35 200
-46 39 -12 96 -24 127 -26 l56 -6 6 54 c3 30 6 340 6 689 l0 635 -96 85 c-180
158 -357 324 -593 555 -357 350 -752 724 -1245 1180 -65 61 -201 187 -301 282
l-181 172 -32 -44z m187 -252 c1 -10 5 -49 8 -88 l6 -70 -56 60 c-59 63 -63
76 -49 158 l6 38 41 -40 c23 -23 43 -49 44 -58z m168 -207 l7 -78 -57 58 -56
58 0 66 0 67 49 -46 c49 -46 50 -47 57 -125z m-164 4 c4 0 8 -117 8 -260 l0
-259 -47 44 c-27 25 -51 45 -55 45 -5 0 -8 117 -8 261 l0 261 47 -46 c25 -25
50 -46 55 -46z m273 -30 c35 -21 35 -23 35 -91 0 -38 -2 -69 -4 -69 -3 0 -25
21 -50 48 -47 48 -52 67 -40 132 5 25 9 29 16 17 4 -9 24 -25 43 -37z m-105
-355 l0 -245 -55 43 -55 42 0 260 0 260 55 -57 55 -57 0 -246z m-563 143 c-2
-35 -3 -9 -3 57 0 66 1 94 3 63 2 -32 2 -86 0 -120z m835 -1 c2 -37 2 -67 2
-67 -1 0 -20 17 -43 38 -40 37 -41 39 -41 104 l0 67 39 -37 c38 -35 40 -41 43
-105z m-1002 -1167 c1 -696 0 -1269 -1 -1275 -2 -5 -5 55 -8 135 -7 162 -3
2415 4 2408 2 -2 4 -573 5 -1268z m870 910 l0 -250 -50 49 -50 49 0 249 0 250
50 -49 50 -49 0 -249z m-613 158 c-2 -35 -3 -7 -3 62 0 69 1 97 3 63 2 -35 2
-91 0 -125z m-330 55 c-3 -10 -5 -2 -5 17 0 19 2 27 5 18 2 -10 2 -26 0 -35z
m1210 -80 c1 -35 -2 -63 -5 -62 -4 0 -22 20 -39 45 -27 36 -33 54 -33 95 l0
51 38 -33 c36 -32 38 -37 39 -96z m-176 45 l44 -43 -5 -237 -5 -237 -37 32
-37 32 -7 248 c-4 136 -4 247 -1 247 2 0 24 -19 48 -42z m-784 -125 c-2 -21
-4 -4 -4 37 0 41 2 58 4 38 2 -21 2 -55 0 -75z m1071 48 c7 -9 12 -42 12 -80
l0 -66 -20 33 c-11 18 -27 35 -35 38 -11 5 -15 22 -15 67 l0 60 23 -19 c12
-10 28 -25 35 -33z m-137 -52 l29 -26 -2 -236 -3 -237 -43 39 -43 40 2 233 c0
128 3 237 6 242 3 5 10 0 15 -10 6 -11 23 -31 39 -45z m-848 -29 c3 -11 1 -23
-4 -26 -5 -3 -9 6 -9 20 0 31 6 34 13 6z m1091 -21 c21 -25 26 -41 26 -87 l0
-56 -35 38 c-30 33 -35 45 -35 87 0 27 4 49 9 49 5 0 21 -14 35 -31z m-796
-60 c12 -4 20 -592 8 -597 -4 -2 -29 14 -56 35 l-49 38 -1 304 0 304 43 -40
c24 -22 48 -42 55 -44z m-701 -1 c-2 -13 -4 -5 -4 17 -1 22 1 32 4 23 2 -10 2
-28 0 -40z m1381 8 c22 -19 22 -24 22 -248 0 -250 3 -238 -55 -193 -19 15 -20
30 -23 252 -3 261 -8 245 56 189z m-1061 -38 c-3 -7 -5 -2 -5 12 0 14 2 19 5
13 2 -7 2 -19 0 -25z m-90 -65 c-2 -16 -4 -3 -4 27 0 30 2 43 4 28 2 -16 2
-40 0 -55z m1376 58 c25 -13 27 -19 27 -73 0 -64 -9 -72 -38 -30 -18 25 -38
127 -23 120 3 -2 18 -10 34 -17z m-752 -73 c5 -2 11 -126 13 -296 l5 -292 -54
37 -54 38 -1 270 c0 149 -3 281 -7 294 -6 23 -4 22 41 -12 26 -20 51 -37 57
-39z m669 -235 c0 -120 -4 -213 -8 -208 -4 6 -22 22 -41 35 l-33 23 3 224 4
224 38 -40 37 -40 0 -218z m-1573 24 c-1 -45 -3 -5 -3 88 0 94 2 130 3 82 2
-48 2 -125 0 -170z m456 -1726 c-2 -2 -5 -2 -7 0 -7 7 -9 522 -5 1269 l3 715
6 -990 c3 -544 5 -992 3 -994z m-526 1922 c-3 -10 -5 -2 -5 17 0 19 2 27 5 18
2 -10 2 -26 0 -35z m437 -600 c1 -340 -1 -566 -5 -503 -8 148 -11 1135 -3
1127 4 -4 7 -284 8 -624z m1406 585 c27 -29 30 -39 27 -76 -3 -24 -7 -46 -10
-49 -3 -3 -17 8 -31 23 -20 23 -25 40 -26 82 0 28 2 52 5 52 3 0 19 -15 35
-32z m-1915 -2086 c-3 -3 -6 -3 -7 -1 -2 2 -1 479 2 1059 l5 1055 3 -1054 c1
-580 0 -1057 -3 -1059z m1125 2058 c0 -5 18 -22 40 -36 l40 -27 0 -273 0 -273
-47 28 -48 27 -2 282 c0 162 3 282 8 282 5 0 9 -4 9 -10z m672 -19 c31 -34 31
-41 29 -268 0 -113 -5 -173 -11 -173 -6 0 -22 11 -35 25 -25 24 -25 24 -25
235 0 115 4 210 8 210 5 0 20 -13 34 -29z m-1855 -188 c-2 -32 -3 -8 -3 52 0
61 1 87 3 58 2 -29 2 -78 0 -110z m130 -985 c-1 -211 -2 -39 -2 382 0 421 1
593 2 383 2 -211 2 -555 0 -765z m1955 1115 c13 -11 18 -30 18 -66 l0 -51 -30
29 c-21 20 -30 38 -30 60 0 47 12 55 42 28z m-1603 -928 c1 -594 -2 -925 -8
-925 -7 0 -10 298 -11 828 0 700 5 1022 15 1022 1 0 3 -416 4 -925z m1514 667
c2 -111 0 -202 -4 -202 -3 0 -12 7 -19 15 -7 8 -18 15 -25 15 -27 0 -31 62
-18 303 l6 128 29 -28 28 -29 3 -202z m-605 -86 c1 -141 0 -256 -3 -256 -17 0
-66 33 -75 49 -6 12 -10 120 -10 277 l0 257 43 -35 42 -36 3 -256z m800 248
c23 -16 27 -45 13 -94 -7 -24 -7 -24 -29 12 -21 34 -30 98 -14 98 4 0 18 -7
30 -16z m-100 -43 c9 -11 12 -69 12 -213 l0 -199 -30 23 -30 22 0 204 c0 193
1 204 18 191 9 -7 23 -20 30 -28z m-1830 -513 c-1 -358 -4 -495 -9 -403 -12
249 -7 945 8 945 1 0 2 -244 1 -542z m1270 213 l2 -251 -37 26 c-22 15 -41 37
-44 52 -4 15 -7 132 -8 261 l-1 234 43 -35 42 -36 3 -251z m766 247 c18 -25
20 -56 7 -77 -14 -22 -42 12 -48 59 -5 32 -2 40 10 40 9 0 23 -10 31 -22z
m-89 -63 c3 -11 4 -100 3 -198 l-3 -177 -32 22 -33 23 0 198 0 199 30 -24 c16
-13 32 -32 35 -43z m-555 -263 l0 -242 -40 26 -40 27 0 237 0 238 40 -21 40
-22 0 -243z m-1343 -374 c-1 -123 -2 -25 -2 217 0 242 1 342 2 223 2 -119 2
-317 0 -440z m2089 607 c16 -24 12 -85 -6 -85 -15 0 -40 49 -40 80 0 37 23 40
46 5z m-2199 -37 c-3 -7 -5 -2 -5 12 0 14 2 19 5 13 2 -7 2 -19 0 -25z m2087
17 c16 -12 19 -34 23 -199 4 -108 2 -186 -3 -186 -5 0 -20 9 -34 19 -27 22
-27 17 -22 254 1 70 5 127 10 127 4 0 15 -7 26 -15z m-514 -292 l0 -233 -34
22 c-23 15 -36 33 -39 53 -3 16 -2 126 1 243 l5 213 34 -33 33 -32 0 -233z
m-863 229 l51 -33 7 -117 c7 -111 1 -459 -8 -468 -6 -6 -98 47 -103 60 -6 16
-10 596 -4 593 3 -1 28 -17 57 -35z m1575 1 c19 -17 27 -103 9 -103 -19 0 -53
70 -47 95 7 29 13 31 38 8z m-74 -229 l3 -176 -29 18 c-36 21 -39 42 -33 250
l3 137 27 -27 c26 -26 26 -27 29 -202z m-557 175 l29 -20 0 -225 c0 -123 -2
-224 -5 -224 -3 0 -19 10 -35 22 l-30 22 0 223 c0 123 3 223 6 223 3 0 19 -9
35 -21z m-1661 -709 l-6 -715 -2 530 c-2 440 5 913 13 903 1 -2 -1 -325 -5
-718z m925 626 c7 -21 12 -441 6 -497 l-6 -57 -52 24 -53 23 -2 53 c-1 29 -2
159 -2 288 l-1 235 53 -29 c30 -15 55 -33 57 -40z m-1975 -210 c0 -254 -1
-264 -21 -282 l-21 -19 4 275 c1 151 7 281 11 288 22 33 27 -16 27 -262z
m3437 252 c24 -23 32 -78 11 -78 -24 0 -48 34 -48 67 0 39 6 41 37 11z m-591
-56 c4 -9 9 -111 12 -226 l4 -209 -33 21 -34 21 -3 221 -2 221 24 -16 c13 -9
28 -24 32 -33z m489 36 l25 -11 0 -174 c0 -95 -3 -173 -7 -173 -5 1 -18 9 -30
19 -22 19 -23 25 -23 185 0 91 2 166 5 166 2 0 16 -5 30 -12z m-3415 -291 c0
-270 -3 -297 -34 -297 -10 0 -1 506 10 548 18 64 24 -4 24 -251z m2188 203
c18 0 27 -377 13 -502 l-6 -58 -41 21 -41 21 -7 106 c-3 58 -6 185 -6 284 l0
178 40 -25 c22 -14 43 -25 48 -25z m1342 -10 c5 -10 10 -87 10 -174 0 -165 -3
-173 -46 -142 -17 13 -19 30 -22 161 -4 174 0 200 28 185 11 -6 24 -19 30 -30z
m82 23 c22 -20 24 -51 3 -59 -13 -5 -13 -9 -3 -22 10 -11 12 -56 10 -171 -2
-85 -5 -158 -8 -160 -3 -3 -13 0 -22 5 -15 10 -17 33 -20 169 -1 99 1 162 8
170 7 9 7 21 0 40 -16 43 0 57 32 28z m-574 -254 l2 -212 -32 25 -33 26 0 205
0 206 30 -19 30 -19 3 -212z m-2648 204 c3 -3 5 -112 5 -244 0 -269 7 -250
-77 -208 l-38 19 0 234 0 234 53 -15 c28 -9 54 -18 57 -20z m-468 3 c3 -14 5
-133 4 -265 -1 -239 -1 -241 -25 -263 l-23 -23 6 225 c4 124 8 236 10 250 1
14 4 42 4 63 2 42 17 50 24 13z m1015 -78 c-2 -18 -4 -6 -4 27 0 33 2 48 4 33
2 -15 2 -42 0 -60z m-230 20 c-2 -13 -4 -5 -4 17 -1 22 1 32 4 23 2 -10 2 -28
0 -40z m1585 28 c20 -11 40 -26 43 -34 3 -8 2 -126 -1 -262 l-7 -248 -31 10
c-17 6 -34 13 -37 17 -9 8 -19 543 -11 539 4 -2 24 -12 44 -22z m1408 -7 c11
-20 15 -397 5 -408 -3 -2 -14 4 -25 14 -18 17 -20 31 -20 173 0 138 2 153 16
148 12 -5 15 -2 9 11 -24 62 -12 113 15 62z m-3190 -19 l45 -18 3 -237 c2
-188 0 -236 -10 -232 -7 3 -39 14 -70 23 l-58 18 0 239 0 238 23 -7 c12 -3 42
-15 67 -24z m2611 -1 l29 -20 0 -200 c0 -109 -4 -199 -9 -199 -4 0 -20 11 -35
25 l-26 24 0 196 c0 107 3 195 6 195 3 0 19 -9 35 -21z m-3273 -247 c2 -189
-1 -243 -12 -267 -13 -27 -14 -9 -15 191 -1 213 5 314 18 314 3 0 7 -107 9
-238z m2618 -80 c0 -187 -2 -259 -10 -253 -6 4 -23 12 -39 17 l-27 9 -5 245
c-2 135 -1 255 1 267 l6 22 36 -23 37 -23 1 -261z m1326 266 c10 -17 12 -74
10 -217 l-3 -194 -24 23 c-24 23 -25 27 -25 172 0 81 4 148 9 148 5 0 6 20 3
45 -5 50 9 60 30 23z m-550 -33 c8 -11 11 -375 3 -375 -2 0 -16 5 -30 12 -25
11 -30 30 -28 118 0 14 1 85 2 159 l1 134 23 -19 c12 -10 25 -23 29 -29z
m-3464 -461 c-29 -61 -33 -35 -27 198 8 313 22 334 32 51 7 -178 6 -227 -5
-249z m2810 169 c-2 -133 -7 -245 -10 -248 -5 -6 -42 8 -57 21 -2 2 -6 119 -9
260 l-5 256 42 -23 43 -24 -4 -242z m1290 255 c16 -16 15 -58 0 -58 -27 0 -39
17 -32 43 7 30 14 33 32 15z m-558 -18 c24 -18 25 -23 28 -166 2 -81 1 -162
-2 -180 -6 -30 -8 -31 -31 -20 -14 6 -25 16 -25 21 0 6 -1 90 -4 188 -2 97 -1
177 3 177 3 0 17 -9 31 -20z m-3609 -303 c-2 -10 -9 -16 -15 -14 -13 5 -14
108 -1 227 l10 85 5 -140 c3 -77 3 -148 1 -158z m2999 47 l0 -194 -32 -2 -33
-1 33 -4 c30 -4 32 -7 32 -44 0 -21 -2 -39 -4 -39 -2 0 -19 7 -38 14 l-35 15
-1 188 c-1 103 1 213 4 245 l6 56 34 -20 34 -20 0 -194z m1258 191 c16 -34 6
-58 -19 -44 -26 13 -25 69 1 69 4 0 12 -11 18 -25z m-94 -4 c14 -16 16 -39 14
-167 l-3 -149 -22 25 c-22 22 -23 32 -23 167 0 79 4 143 8 143 5 0 16 -8 26
-19z m-456 -7 c21 -15 22 -21 22 -190 0 -96 -3 -174 -7 -174 -4 0 -17 10 -30
22 -22 21 -23 27 -23 190 0 92 3 168 8 168 4 0 18 -7 30 -16z m-3784 -453
c-14 -15 -15 3 -12 204 4 300 22 321 26 31 2 -191 0 -222 -14 -235z m3165 419
c23 -20 23 -22 25 -245 0 -124 -2 -225 -5 -225 -4 0 -21 3 -38 6 l-31 7 0 222
c0 211 3 255 19 255 3 -1 17 -9 30 -20z m-1872 -402 c-1 -73 -3 -14 -3 132 0
146 2 205 3 133 2 -73 2 -193 0 -265z m2588 370 c25 -22 26 -25 24 -148 -1
-69 -4 -142 -6 -162 -5 -35 -7 -37 -27 -26 -11 6 -24 16 -28 22 -9 13 -11 298
-2 320 8 20 9 20 39 -6z m443 6 c21 -14 22 -21 22 -165 0 -82 -4 -149 -8 -149
-5 0 -18 9 -30 20 -21 20 -22 30 -22 165 0 80 3 145 8 145 4 0 18 -7 30 -16z
m102 -50 c14 -57 13 -344 -1 -344 -6 0 -19 5 -30 10 -17 10 -19 23 -19 165 0
136 2 155 18 164 9 6 11 11 5 11 -8 0 -13 13 -13 32 0 29 1 31 16 17 8 -9 20
-34 24 -55z m-4473 -161 c-4 -143 -10 -220 -18 -227 -9 -8 -10 29 -5 154 7
181 16 290 24 290 3 0 2 -98 -1 -217z m3344 50 c2 -65 2 -168 1 -230 l-4 -111
-28 16 c-28 16 -29 20 -34 107 -2 49 -4 97 -4 105 0 8 0 66 -1 127 -2 62 0
117 4 123 4 6 16 5 35 -5 l28 -14 3 -118z m-3394 -115 c-1 -46 -3 -9 -3 82 0
91 2 128 3 83 2 -46 2 -120 0 -165z m2319 202 l49 -21 -1 -172 c0 -95 -2 -254
-2 -354 -2 -204 2 -194 -74 -172 l-38 10 0 364 c0 201 4 365 9 365 4 0 30 -9
57 -20z m1751 -2 c20 -22 21 -31 16 -170 -3 -82 -9 -148 -14 -148 -37 0 -39 9
-39 176 0 90 4 164 8 164 5 0 18 -10 29 -22z m-3521 -258 c-1 -255 -1 -260
-23 -282 l-23 -22 0 266 c0 264 0 266 23 281 12 9 23 16 23 16 1 1 1 -116 0
-259z m2954 -1 l0 -219 -35 17 -35 17 0 223 0 222 35 -20 35 -21 0 -219z
m-2343 24 c-1 -43 -3 -8 -3 77 0 85 2 120 3 78 2 -43 2 -113 0 -155z m-1192
17 c5 -135 4 -172 -8 -205 -15 -38 -16 -28 -16 175 -1 254 14 273 24 30z
m2509 152 l49 -22 -7 -47 c-3 -25 -6 -179 -6 -343 l0 -297 -49 16 -50 16 -3
190 c-4 244 1 517 10 513 4 -2 29 -14 56 -26z m1678 1 c16 -14 18 -33 18 -160
0 -78 -3 -143 -8 -143 -4 0 -18 7 -31 17 -23 16 -24 19 -18 117 4 56 7 120 7
144 0 46 5 50 32 25z m-543 -250 c-2 -214 -4 -222 -47 -185 -23 19 -25 49 -23
315 l1 128 35 -28 36 -28 -2 -202z m-3149 -7 c0 -203 -3 -256 -14 -265 -22
-19 -26 16 -26 265 0 224 4 254 32 254 4 0 8 -114 8 -254z m346 233 l41 -12 7
-76 c10 -121 -5 -463 -20 -457 -6 2 -30 10 -53 17 l-41 12 0 269 c0 212 3 269
13 264 6 -3 31 -11 53 -17z m461 -86 c-2 -21 -4 -4 -4 37 0 41 2 58 4 38 2
-21 2 -55 0 -75z m-1357 -98 c0 -123 -4 -195 -10 -195 -6 0 -10 59 -10 158 0
142 6 232 16 232 2 0 4 -88 4 -195z m2723 137 l27 -12 -1 -326 -2 -325 -41 6
c-23 4 -44 10 -48 14 -5 4 -5 159 -1 344 6 306 8 336 22 324 9 -7 28 -18 44
-25z m-665 -464 c0 -109 -4 -198 -9 -198 -5 0 -8 155 -7 348 1 300 2 327 9
197 4 -82 7 -239 7 -347z m-1794 460 c16 -60 -4 -164 -27 -141 -9 8 -9 148 0
156 12 12 21 7 27 -15z m801 -9 l50 -19 -3 -258 -3 -259 -72 16 -72 17 2 204
c1 113 3 233 3 268 0 72 -8 69 95 31z m3268 17 c15 -11 17 -31 17 -150 0 -111
-3 -136 -14 -136 -37 0 -46 28 -46 143 0 110 6 157 19 157 3 0 14 -7 24 -14z
m-3870 -485 l-17 -26 -6 25 c-3 14 -7 121 -9 238 -2 212 -2 213 21 232 l23 18
3 -230 c2 -204 0 -234 -15 -257z m954 352 c-2 -27 -3 -5 -3 47 0 52 1 74 3 48
2 -27 2 -69 0 -95z m2383 -95 c0 -109 -2 -198 -5 -198 -2 0 -16 5 -30 12 l-25
11 0 204 0 204 30 -18 30 -17 0 -198z m-3851 22 c0 -69 -4 -132 -9 -140 -6
-10 -9 40 -9 150 1 98 4 155 9 140 4 -14 8 -81 9 -150z m2903 140 l27 -9 3
-316 c2 -173 3 -315 3 -315 0 0 -20 6 -45 14 l-45 13 0 320 c0 282 2 319 15
312 8 -5 27 -13 42 -19z m1045 -224 c-3 -100 -9 -180 -13 -178 -5 1 -16 5 -25
7 -12 4 -18 23 -23 67 -8 80 -8 276 1 318 l6 33 30 -33 29 -33 -5 -181z m533
215 c10 -20 15 -251 5 -251 -3 0 -17 7 -30 16 -23 15 -25 22 -25 104 0 105 8
150 26 150 7 0 18 -9 24 -19z m-4540 -335 c-12 -12 -14 172 -2 279 6 58 7 41
10 -99 1 -106 -1 -173 -8 -180z m508 112 c-2 -156 -7 -233 -14 -235 -15 -5
-26 397 -12 438 23 66 28 22 26 -203z m-543 42 c-4 -100 -12 -173 -18 -177
-11 -6 -3 274 9 330 13 59 16 11 9 -153z m3117 139 l43 -21 0 -299 c1 -265 -1
-299 -15 -295 -8 3 -27 8 -42 12 l-28 6 0 277 c0 152 -2 291 -6 309 -8 38 -7
38 48 11z m993 -11 l25 -11 0 -184 c0 -100 -3 -183 -7 -183 -5 0 -18 3 -30 6
-23 6 -23 8 -23 195 0 104 2 189 5 189 2 0 16 -5 30 -12z m549 -10 c18 -30 20
-558 2 -558 -38 1 -40 10 -44 299 -3 249 -2 281 12 281 9 0 22 -10 30 -22z
m-4184 -209 c0 -172 -3 -220 -12 -217 -10 4 -14 54 -16 199 -3 197 0 239 18
239 6 0 10 -83 10 -221z m-536 -89 c-12 -115 -17 -43 -8 129 l9 166 3 -115 c2
-63 0 -144 -4 -180z m1563 193 c-2 -21 -4 -6 -4 32 0 39 2 55 4 38 2 -18 2
-50 0 -70z m-1089 -118 c-5 -153 -18 -236 -30 -189 -2 10 -4 93 -3 184 1 122
6 171 16 188 l14 23 4 -23 c2 -13 1 -95 -1 -183z m2872 96 c0 -37 -3 -163 -7
-280 l-6 -212 -31 3 -31 3 -3 296 -2 297 40 -20 40 -20 0 -67z m921 89 c18
-10 19 -23 19 -190 0 -99 -3 -180 -8 -180 -4 0 -18 7 -30 16 -21 15 -22 21
-22 174 0 144 4 190 17 190 2 0 13 -5 24 -10z m553 -309 c2 -223 1 -241 -15
-241 -10 0 -21 5 -24 11 -4 6 -9 126 -11 267 l-5 257 27 -26 26 -27 2 -241z
m-453 269 c5 0 9 -78 9 -181 l0 -180 -22 3 c-20 3 -24 10 -29 68 -9 89 -10
217 -2 263 4 28 10 37 20 33 8 -4 19 -6 24 -6z m-4409 -162 c-2 -87 -7 -158
-11 -158 -7 0 -3 288 4 309 10 27 11 4 7 -151z m3501 -140 l2 -275 -30 8 c-16
5 -31 9 -32 9 -2 0 -3 126 -3 280 l0 279 31 -13 30 -13 2 -275z m-3553 -32
c-12 -12 -14 204 -2 280 5 36 8 6 10 -110 1 -100 -1 -163 -8 -170z m490 -71
c-6 -15 -13 -26 -15 -23 -3 3 -5 91 -6 197 0 144 3 196 13 208 11 13 13 -15
16 -169 1 -112 -2 -196 -8 -213z m-523 353 c-3 -8 -6 -5 -6 6 -1 11 2 17 5 13
3 -3 4 -12 1 -19z m2080 -140 c-2 -29 -3 -6 -3 52 0 58 1 81 3 53 2 -29 2 -77
0 -105z m2497 137 c17 -13 18 -24 10 -178 l-9 -164 -22 8 c-23 8 -23 11 -23
179 0 179 2 187 44 155z m-905 -6 l31 -11 0 -260 0 -259 -32 3 -33 3 -3 268
c-2 147 -1 267 1 267 2 0 18 -5 36 -11z m-3677 -156 c-2 -82 -9 -152 -14 -158
-7 -7 -9 6 -4 39 3 27 6 98 6 157 0 60 4 109 9 109 4 0 6 -66 3 -147z m-51
-174 c-13 -31 -14 77 -3 212 l7 94 3 -141 c1 -77 -2 -152 -7 -165z m464 104
c-7 -141 -14 -198 -22 -201 -20 -6 -18 297 2 324 8 10 15 28 15 40 0 16 7 34
14 34 1 0 -3 -88 -9 -197z m58 85 c11 -183 9 -248 -7 -248 -11 0 -14 33 -18
163 -2 89 -2 170 0 180 11 42 19 9 25 -95z m3347 -169 c0 -225 -2 -251 -16
-245 -9 3 -22 6 -30 6 -12 0 -14 42 -14 260 l0 261 30 -16 30 -16 0 -250z
m851 271 c18 -10 19 -23 19 -170 l0 -159 -22 8 c-28 10 -35 59 -37 224 -1 110
2 117 40 97z m109 -197 c0 -147 -1 -153 -20 -153 -26 0 -27 3 -35 143 -5 108
-4 117 12 117 17 1 17 1 1 14 -10 7 -18 25 -18 40 l0 27 30 -18 30 -17 0 -153z
m-4869 -124 c-12 -30 -15 220 -3 272 4 22 8 -15 10 -107 1 -77 -2 -152 -7
-165z m1786 -116 c-1 -76 -3 -14 -3 137 0 151 2 213 3 138 2 -76 2 -200 0
-275z m2230 126 c1 -177 -2 -239 -10 -239 -7 0 -23 3 -36 7 l-23 6 3 247 4
247 30 -14 30 -14 2 -240z m-4055 139 c-4 -187 -8 -205 -10 -50 -1 83 1 152 6
152 4 0 6 -46 4 -102z m2075 25 c-2 -16 -4 -5 -4 22 0 28 2 40 4 28 2 -13 2
-35 0 -50z m195 -43 c2 -58 1 -121 -3 -140 -3 -20 -7 26 -8 109 0 79 1 142 3
140 2 -2 6 -51 8 -109z m1863 98 c30 -13 28 -2 29 -281 1 -203 1 -208 -19
-203 -11 3 -26 6 -32 6 -10 0 -13 56 -13 245 0 135 2 245 5 245 2 0 16 -5 30
-12z m-3660 -305 c-3 -13 -10 -23 -15 -23 -15 0 -13 266 3 293 10 19 12 1 15
-113 1 -74 0 -145 -3 -157z m-538 65 c-1 -40 -3 -10 -3 67 0 77 1 110 3 73 2
-37 2 -100 0 -140z m30 5 c-2 -38 -3 -7 -3 67 0 74 1 105 3 68 2 -38 2 -98 0
-135z m1143 -38 c0 -136 -4 -235 -9 -235 -5 0 -16 -3 -25 -6 -14 -5 -16 19
-16 228 0 129 3 238 7 241 3 4 15 7 25 7 17 0 18 -14 18 -235z m3136 215 c9 0
14 -11 14 -35 0 -28 -5 -38 -22 -45 l-23 -9 22 0 c22 -1 22 -3 25 -178 2 -98
3 -179 2 -180 0 -1 -13 1 -30 6 l-29 7 0 222 c0 181 2 221 13 217 8 -3 20 -5
28 -5z m-2029 -52 c-2 -13 -4 -5 -4 17 -1 22 1 32 4 23 2 -10 2 -28 0 -40z
m-2311 -91 l2 -132 -10 117 c-9 100 -7 148 4 148 2 0 4 -60 4 -133z m524 80
c0 -96 -13 -237 -21 -237 -10 0 -12 212 -3 259 10 49 24 36 24 -22z m578 -409
c-7 -4 -15 -8 -18 -8 -3 0 -6 98 -8 219 -3 200 -2 220 15 236 17 18 18 11 21
-210 2 -176 -1 -230 -10 -237z m-626 295 c-2 -79 -8 -143 -13 -143 -13 0 -11
247 2 272 6 11 12 18 13 16 1 -1 0 -67 -2 -145z m3963 137 c12 0 15 -41 17
-220 2 -142 -1 -220 -7 -219 -44 3 -45 3 -48 232 -3 185 -2 217 10 212 8 -3
21 -5 28 -5z m-3398 -224 c2 -198 0 -225 -14 -230 -9 -4 -17 -5 -19 -4 -1 2
-4 99 -5 215 -3 201 -2 214 16 228 11 8 20 14 20 15 0 0 1 -101 2 -224z
m-1080 182 c-3 -7 -5 -2 -5 12 0 14 2 19 5 13 2 -7 2 -19 0 -25z m1543 -180
l0 -189 -52 3 -53 3 -3 185 c-1 101 0 190 2 196 3 8 18 9 55 1 l51 -10 0 -189z
m-1067 58 c6 -133 -1 -162 -13 -54 l-7 63 -2 -72 c0 -42 -6 -75 -13 -79 -15
-9 -3 228 13 257 6 12 12 19 13 17 2 -1 6 -61 9 -132z m4094 128 c21 -6 22 -8
21 -216 0 -179 -3 -208 -15 -204 -8 3 -21 6 -29 6 -12 0 -14 35 -14 210 0 116
3 210 8 210 4 0 17 -3 29 -6z m-2867 -48 c13 -5 15 -32 12 -173 -2 -92 -4
-168 -5 -169 -1 0 -35 1 -74 4 l-73 4 0 188 0 187 63 -17 c34 -10 69 -21 77
-24z m-1753 -28 c-2 -13 -4 -5 -4 17 -1 22 1 32 4 23 2 -10 2 -28 0 -40z
m1053 -137 c0 -104 3 -196 6 -205 4 -12 0 -16 -15 -16 -21 0 -21 3 -21 189 0
104 3 196 6 205 17 45 24 -2 24 -173z m3671 179 c5 0 9 -88 9 -206 l0 -206
-22 6 c-13 3 -26 6 -30 6 -10 0 -10 214 -1 328 5 66 9 82 20 77 8 -3 19 -5 24
-5z m-4261 -125 c0 -77 -4 -125 -10 -125 -6 0 -10 46 -10 118 0 104 4 132 17
132 2 0 3 -56 3 -125z m523 -97 c5 -188 4 -198 -13 -198 -17 0 -19 12 -20 186
0 129 3 191 11 200 7 8 13 13 14 12 1 -2 5 -92 8 -200z m3837 -20 c0 -187 -1
-198 -19 -198 -10 0 -22 6 -27 13 -5 6 -8 101 -6 209 l3 197 24 -11 25 -11 0
-199z m-4783 95 c-2 -21 -4 -4 -4 37 0 41 2 58 4 38 2 -21 2 -55 0 -75z m382
5 c-2 -111 -17 -169 -30 -113 -11 48 -10 175 1 196 23 42 31 18 29 -83z m328
55 c-3 -10 -5 -4 -5 12 0 17 2 24 5 18 2 -7 2 -21 0 -30z m4163 -28 c0 -21 -5
-35 -12 -35 -9 0 -9 -3 0 -12 13 -13 18 -298 5 -298 -5 0 -17 3 -28 6 -19 5
-20 14 -20 204 l0 198 27 -14 c22 -12 28 -21 28 -49z m-4550 -60 c0 -63 -4
-115 -9 -115 -9 0 -20 168 -13 208 3 12 8 22 13 22 5 0 9 -52 9 -115z m-303
63 c-3 -7 -5 -2 -5 12 0 14 2 19 5 13 2 -7 2 -19 0 -25z m261 -80 c-2 -78 -7
-113 -15 -116 -15 -4 -18 84 -7 176 12 92 25 56 22 -60z m521 -254 c-6 -8 -15
-14 -20 -14 -5 0 -7 76 -5 170 3 125 7 174 17 187 12 14 14 -9 17 -157 2 -119
-1 -177 -9 -186z m4147 346 c12 0 14 -33 14 -191 0 -170 -2 -190 -16 -185 -9
3 -22 6 -30 6 -11 0 -13 33 -11 190 2 153 5 189 15 185 8 -3 20 -5 28 -5z
m-4709 -118 c1 -66 -2 -97 -7 -82 l-8 25 -1 -27 c-1 -15 -6 -30 -12 -33 -7 -5
-8 25 -3 101 3 60 9 112 11 117 13 22 18 -4 20 -101z m2050 36 c-2 -13 -4 -3
-4 22 0 25 2 35 4 23 2 -13 2 -33 0 -45z m2739 54 c7 -4 13 -74 17 -188 l6
-181 -25 5 -24 4 0 184 c0 101 3 184 8 184 4 0 12 -4 18 -8z m-4838 -106 c-3
-90 -10 -131 -21 -115 -8 11 6 219 15 219 6 0 9 -39 6 -104z m547 -115 l8
-131 -23 0 c-18 0 -21 4 -16 23 3 12 6 92 7 177 2 178 12 147 24 -69z m-598
32 c-2 -32 -3 -6 -3 57 0 63 1 89 3 58 2 -32 2 -84 0 -115z m543 91 c0 -83
-18 -164 -31 -142 -8 12 -2 177 7 206 2 6 8 12 14 12 6 0 10 -31 10 -76z
m4454 34 c3 -17 6 -95 6 -174 l0 -144 -25 0 -25 0 0 179 c0 171 1 179 19 174
11 -3 21 -17 25 -35z m-3047 -50 c-2 -18 -4 -6 -4 27 0 33 2 48 4 33 2 -15 2
-42 0 -60z m-2009 -43 c1 -61 -3 -105 -8 -105 -11 0 -14 193 -3 203 3 4 7 7 8
7 1 0 2 -47 3 -105z m27 19 c5 -111 5 -367 0 -373 -3 -2 -5 52 -5 121 0 69 -3
174 -6 234 -4 60 -4 106 0 103 4 -4 9 -42 11 -85z m-70 -142 c-11 -11 -12 7
-6 113 l6 110 3 -109 c1 -60 0 -111 -3 -114z m122 156 c-2 -13 -4 -3 -4 22 0
25 2 35 4 23 2 -13 2 -33 0 -45z m455 -90 c-4 -201 -22 -222 -22 -26 0 139 4
178 19 178 3 0 5 -69 3 -152z m4596 146 c22 -6 22 -9 22 -175 0 -177 -1 -180
-44 -163 -14 5 -16 30 -16 175 0 93 3 169 8 169 4 0 17 -3 30 -6z m-5206 -124
c0 -55 -2 -100 -6 -100 -3 0 -6 2 -6 5 0 3 0 51 0 107 0 56 3 99 6 95 4 -3 6
-51 6 -107z m-222 8 l-5 -73 -3 59 c-3 52 1 86 10 86 2 0 1 -33 -2 -72z m147
-80 c-2 -29 -3 -6 -3 52 0 58 1 81 3 53 2 -29 2 -77 0 -105z m42 35 c1 -39 -3
-75 -9 -78 -6 -4 -10 30 -9 97 1 116 16 101 18 -19z m-82 -55 c-2 -29 -3 -8
-3 47 0 55 1 79 3 53 2 -26 2 -71 0 -100z m604 -116 c-7 -12 -10 22 -11 114 0
72 3 134 8 138 11 12 14 -232 3 -252z m-33 88 c0 -41 -3 -85 -6 -98 -4 -13 -7
41 -8 120 0 93 2 127 7 98 4 -25 7 -79 7 -120z m1412 124 c0 -14 -4 -22 -10
-19 -5 3 -10 17 -10 31 0 14 4 22 10 19 6 -3 10 -17 10 -31z m-1478 -136 c2
-71 1 -128 -3 -128 -9 0 -20 255 -12 277 7 17 8 17 10 -2 1 -11 4 -77 5 -147z
m25 125 c-3 -10 -5 -4 -5 12 0 17 2 24 5 18 2 -7 2 -21 0 -30z m-57 -118 c0
-89 -4 -135 -11 -135 -10 0 -12 201 -2 248 10 45 13 19 13 -113z m-603 93 c-3
-7 -5 -2 -5 12 0 14 2 19 5 13 2 -7 2 -19 0 -25z m89 -58 c5 -12 8 -11 14 5 7
17 9 15 9 -10 1 -20 -6 -34 -19 -43 -19 -12 -20 -10 -18 65 1 43 3 60 5 38 2
-22 6 -47 9 -55z m469 -178 c-10 -10 -10 3 -5 133 l5 130 3 -129 c1 -71 0
-131 -3 -134z m-28 96 c-2 -29 -3 -6 -3 52 0 58 1 81 3 53 2 -29 2 -77 0 -105z
m258 53 c-4 -45 -12 -81 -17 -81 -6 0 -7 7 -4 16 3 9 6 50 6 92 0 56 3 73 11
65 8 -8 9 -37 4 -92z m-729 -39 c-12 -11 -13 4 -7 68 l6 65 3 -64 c2 -35 1
-66 -2 -69z m91 51 c-2 -16 -4 -5 -4 22 0 28 2 40 4 28 2 -13 2 -35 0 -50z
m313 -64 c0 -73 -4 -119 -10 -119 -6 0 -10 49 -10 126 0 81 4 123 10 119 6 -4
10 -57 10 -126z m21 6 l-8 -120 -2 116 c-1 98 4 138 15 127 1 -2 -1 -57 -5
-123z m-66 -133 c-10 -11 -11 5 -6 128 l6 125 3 -124 c1 -68 0 -126 -3 -129z
m-38 56 c-2 -35 -3 -7 -3 62 0 69 1 97 3 63 2 -35 2 -91 0 -125z m737 140 c-9
-14 -23 2 -17 18 4 12 8 13 14 3 4 -7 5 -17 3 -21z m-794 -110 c0 -72 -3 -128
-7 -124 -15 15 -13 256 3 256 2 0 4 -59 4 -132z m-31 -86 c1 -33 -3 -51 -9
-47 -6 4 -9 56 -8 128 1 117 2 119 8 47 4 -41 8 -99 9 -128z m378 146 c-2 -13
-4 -5 -4 17 -1 22 1 32 4 23 2 -10 2 -28 0 -40z m-426 -26 c-4 -67 -11 -66
-11 3 0 32 3 55 7 51 4 -4 6 -28 4 -54z m272 -29 c2 -40 0 -73 -4 -73 -5 0 -9
37 -8 83 1 96 6 92 12 -10z m-320 47 c-3 -12 -8 -19 -11 -16 -5 6 5 36 12 36
2 0 2 -9 -1 -20z m-90 -120 c3 -63 1 -101 -3 -85 -8 30 -13 212 -6 204 2 -2 6
-56 9 -119z m34 -47 c-2 -32 -3 -6 -3 57 0 63 1 89 3 58 2 -32 2 -84 0 -115z
m-60 -15 c-2 -35 -3 -9 -3 57 0 66 1 94 3 63 2 -32 2 -86 0 -120z m-27 47 l-7
-110 -1 106 c-2 89 3 128 14 117 1 -2 -2 -52 -6 -113z m147 -47 c-2 -18 -4 -6
-4 27 0 33 2 48 4 33 2 -15 2 -42 0 -60z m-40 -10 c-2 -18 -4 -6 -4 27 0 33 2
48 4 33 2 -15 2 -42 0 -60z m20 5 c-2 -16 -4 -5 -4 22 0 28 2 40 4 28 2 -13 2
-35 0 -50z m50 5 c-2 -13 -4 -5 -4 17 -1 22 1 32 4 23 2 -10 2 -28 0 -40z m20
5 c-3 -10 -5 -2 -5 17 0 19 2 27 5 18 2 -10 2 -26 0 -35z"/>
<path d="M7640 8420 c-126 -3 -207 -8 -195 -13 11 -5 191 -5 400 -1 221 5 363
11 340 15 -42 8 -193 8 -545 -1z"/>
<path d="M2555 8410 c-3 -4 257 -9 578 -11 737 -5 1797 4 1697 13 -103 10
-2269 8 -2275 -2z"/>
<path d="M5910 8410 c0 -13 1067 -14 1075 0 4 7 -172 10 -534 10 -339 0 -541
-4 -541 -10z"/>
<path d="M6390 8313 c-283 -2 -518 -7 -522 -11 -5 -5 229 -8 518 -8 413 1 528
4 531 14 3 6 1 11 -4 10 -4 -2 -240 -4 -523 -5z"/>
<path d="M8188 8315 c-2 -3 -148 -6 -322 -6 -176 -1 -312 -6 -304 -10 7 -5
146 -9 309 -9 309 0 474 8 429 21 -30 8 -105 11 -112 4z"/>
<path d="M2463 8298 c-5 -9 212 -10 1547 -9 470 0 870 3 888 8 18 4 -521 8
-1198 8 -678 0 -1234 -3 -1237 -7z"/>
<path d="M4679 8176 c-2 -3 -195 -6 -428 -8 -266 -2 -409 -6 -385 -11 22 -5
122 -6 224 -3 102 4 363 7 580 7 221 1 386 5 375 9 -20 9 -358 14 -366 6z"/>
<path d="M5755 8165 c-18 -15 -14 -16 60 -8 44 4 288 8 542 8 254 0 464 3 468
7 4 4 -231 7 -522 8 -468 0 -531 -1 -548 -15z"/>
<path d="M7855 8170 c-121 -3 -162 -8 -141 -14 16 -5 86 -5 160 -1 72 4 205
11 296 15 l165 6 -155 0 c-85 0 -231 -3 -325 -6z"/>
<path d="M2513 8163 c75 -2 199 -2 275 0 75 1 13 3 -138 3 -151 0 -213 -2
-137 -3z"/>
<path d="M3165 8080 c-58 -12 -97 -29 -122 -52 l-23 -21 0 29 0 29 -20 -25
c-11 -14 -24 -43 -28 -65 l-10 -40 -7 32 c-9 40 -29 32 -23 -9 4 -25 0 -32
-26 -45 -41 -20 -84 -61 -103 -96 -18 -35 -10 -46 15 -24 28 26 32 21 17 -22
-20 -57 -29 -128 -17 -135 5 -3 13 6 18 22 6 20 10 3 14 -68 6 -89 10 -103 63
-215 31 -66 59 -139 63 -163 4 -23 11 -45 15 -48 12 -7 11 -41 -1 -84 -7 -24
-19 -39 -39 -48 -15 -7 -51 -39 -79 -71 l-51 -59 52 -16 c77 -23 300 -55 427
-61 62 -3 120 -9 129 -15 38 -20 118 -120 152 -191 41 -82 64 -168 74 -274 10
-100 -9 -70 -23 37 -15 117 -50 214 -106 292 -54 76 -99 113 -147 123 l-34 6
63 -69 c34 -38 77 -98 96 -134 51 -98 82 -240 77 -357 -1 -31 -40 -39 -80 -19
-39 21 -39 27 0 19 37 -7 49 6 49 59 0 44 18 37 -200 73 -171 28 -270 47 -495
93 -82 17 -195 36 -251 42 -95 10 -276 59 -452 121 -86 30 -85 31 -326 -173
-79 -67 -171 -125 -236 -149 -56 -20 -74 -39 -50 -54 6 -3 10 -12 10 -20 0 -7
20 -48 45 -89 25 -42 51 -91 59 -109 33 -79 158 -237 187 -237 4 0 27 13 51
28 61 41 133 69 234 92 80 19 90 19 100 5 25 -34 73 -268 129 -635 45 -290 57
-324 193 -535 87 -135 163 -222 320 -367 97 -91 158 -155 159 -167 2 -20 -1
-19 -41 8 -67 46 -235 201 -306 282 -87 99 -125 147 -199 254 l-63 90 8 -65
c14 -125 7 -338 -16 -450 -11 -58 -23 -139 -26 -180 -4 -55 -13 -90 -34 -130
-16 -31 -38 -89 -49 -130 -24 -88 -54 -278 -46 -291 4 -5 250 -9 606 -9 383 0
598 3 594 10 -9 14 -304 196 -366 225 -30 13 -75 28 -102 31 -26 4 -50 11 -53
15 -8 14 90 10 200 -7 122 -20 179 -46 334 -158 167 -119 163 -117 252 -123
l79 -6 -6 154 c-5 155 5 266 28 280 11 6 -7 18 -171 115 -145 85 -391 251
-467 316 -43 36 -120 100 -171 143 -150 125 -302 295 -418 470 -79 118 -82
124 -62 107 21 -17 32 0 23 36 -4 20 4 12 31 -28 171 -252 406 -478 796 -765
81 -59 396 -255 411 -255 1 0 2 106 3 235 1 159 5 240 12 247 8 8 -23 47 -117
147 -166 176 -258 277 -341 376 -37 44 -85 100 -106 125 -21 25 -29 38 -19 29
194 -158 529 -451 579 -508 11 -11 22 -21 27 -21 4 0 6 57 4 128 -2 93 -9 156
-28 237 -14 61 -31 137 -37 170 -7 33 -35 129 -62 213 -27 85 -47 156 -45 159
7 7 48 -65 101 -177 26 -56 60 -153 81 -235 20 -77 40 -144 45 -148 10 -11 42
162 43 233 1 43 -7 71 -35 130 -33 71 -58 114 -191 335 -97 160 -99 165 -85
159 23 -9 214 -246 282 -349 94 -143 93 -143 99 -125 2 8 32 98 65 200 81 249
116 445 117 660 0 172 -1 178 -77 277 -48 64 -109 104 -219 145 -76 28 -97 31
-231 36 -82 2 -148 6 -148 8 0 6 33 46 68 82 23 24 37 32 50 27 9 -4 43 -9 74
-12 44 -4 63 -2 83 11 32 21 32 40 0 78 -32 38 -31 51 3 77 l27 21 -26 22
c-14 13 -35 28 -45 35 -16 9 -11 11 31 10 40 -2 49 1 46 13 -17 64 -16 67 39
85 28 9 54 24 57 32 3 8 -17 60 -45 114 -29 54 -51 109 -49 121 2 20 -7 26
-63 45 l-65 21 -3 66 c-4 80 15 106 77 106 48 0 84 13 111 40 28 28 25 39 -12
55 -31 13 -31 14 -8 15 44 1 -47 50 -95 51 l-40 1 30 13 c17 8 40 14 53 15 12
0 22 4 22 9 0 14 -28 22 -100 28 l-65 6 35 12 c31 11 33 13 14 19 -74 24 -455
35 -549 16z m76 -490 c23 -13 51 -66 47 -88 -3 -13 -9 -8 -21 15 -10 18 -29
41 -43 50 -26 16 -27 16 -45 -6 -24 -29 -27 -137 -4 -167 13 -18 14 -16 15 24
0 23 5 42 10 42 6 0 10 -20 10 -44 0 -47 18 -71 48 -64 23 6 44 -17 40 -45 -4
-31 -34 -33 -76 -3 -48 34 -82 85 -89 135 -15 108 41 186 108 151z m484 -71
c12 -36 -21 -159 -43 -159 -8 0 -62 128 -62 148 0 17 31 31 67 32 23 0 33 -5
38 -21z m-259 -467 c-5 -4 -66 26 -66 33 0 3 16 -3 35 -12 19 -9 33 -18 31
-21z m-397 -674 c15 -43 8 -45 -11 -3 -8 19 -12 35 -8 35 5 0 13 -14 19 -32z
m21 -152 c0 -19 -4 -37 -8 -40 -13 -8 -30 7 -32 29 -4 36 0 45 20 45 16 0 20
-7 20 -34z m-718 -721 c-7 -11 -37 54 -47 100 -4 18 5 7 23 -30 16 -33 27 -64
24 -70z m226 -57 c108 -144 250 -311 429 -507 62 -68 111 -126 108 -129 -9 -9
-116 71 -198 148 -86 80 -240 267 -311 378 -41 63 -136 230 -136 238 0 12 18
-9 108 -128z m-200 27 c-3 -3 -9 2 -12 12 -6 14 -5 15 5 6 7 -7 10 -15 7 -18z"/>
<path d="M831 8042 c-11 -23 -8 -31 30 -86 24 -34 71 -102 106 -153 59 -86 96
-123 168 -169 28 -18 28 -16 -25 84 -50 93 -229 335 -256 346 -6 2 -17 -7 -23
-22z"/>
<path d="M3983 8038 c16 -17 47 -18 380 -17 401 0 764 12 777 25 5 5 -254 9
-583 9 -564 0 -591 -1 -574 -17z"/>
<path d="M5880 8050 c0 -21 804 -27 831 -7 13 9 -73 12 -408 12 -232 1 -423
-2 -423 -5z"/>
<path d="M7827 8049 c10 -4 131 -7 268 -7 138 0 241 2 230 4 -41 7 -516 10
-498 3z"/>
<path d="M2023 7982 c-133 -74 -152 -88 -193 -147 -31 -46 -225 -418 -235
-453 -5 -19 -2 -24 24 -33 16 -6 45 -18 64 -28 l34 -17 21 30 c11 17 43 77 71
134 48 96 206 362 272 459 16 23 29 46 29 51 0 5 10 21 21 36 12 15 20 29 18
31 -3 2 -59 -26 -126 -63z"/>
<path d="M2280 8039 c-25 -3 83 -7 240 -7 184 -1 290 2 300 9 16 11 -454 9
-540 -2z"/>
<path d="M677 7933 c-14 -13 -6 -49 16 -74 12 -14 79 -76 150 -138 118 -105
152 -144 110 -126 -10 4 -61 25 -113 45 -52 20 -119 49 -148 64 -55 28 -72 27
-72 -4 0 -29 56 -69 180 -128 120 -56 150 -76 150 -98 0 -10 -32 -14 -137 -16
l-138 -3 26 -26 c21 -22 40 -28 115 -38 147 -19 153 -21 164 -42 9 -16 5 -28
-25 -69 -38 -52 -57 -59 -89 -35 -23 18 -72 20 -82 4 -3 -6 -6 -28 -6 -49 1
-36 -2 -40 -36 -51 -53 -17 -62 -27 -62 -68 0 -28 -5 -39 -22 -46 -14 -6 -25
-23 -29 -43 -4 -18 -14 -39 -24 -46 -24 -17 -23 -90 2 -146 11 -25 37 -60 59
-79 21 -19 44 -44 49 -55 15 -30 88 -48 163 -41 64 7 202 66 202 87 0 5 -7 7
-16 4 -11 -4 -14 -1 -10 12 30 97 48 204 42 259 -6 66 -26 117 -50 126 -11 5
-10 13 8 50 l21 44 44 -39 c59 -51 145 -75 169 -45 5 6 26 49 45 94 l36 82
-67 65 c-87 83 -177 154 -227 177 l-40 19 31 0 c30 0 99 -38 142 -79 39 -38
24 -7 -24 50 -51 59 -167 160 -314 271 -52 39 -113 86 -134 105 -41 34 -48 37
-59 26z m336 -809 c43 -40 17 -61 -30 -24 -14 11 -37 20 -51 20 -21 0 -22 2
-12 15 19 23 62 18 93 -11z m-125 -158 c29 -15 42 -43 26 -58 -6 -6 -134 126
-134 139 0 4 17 -9 38 -29 20 -20 52 -43 70 -52z m-19 -113 c1 -1 1 -7 -1 -13
-3 -10 -118 93 -118 106 0 3 26 -16 58 -42 31 -27 59 -49 61 -51z m-91 -37
c40 -39 51 -56 34 -56 -11 0 -69 57 -95 94 -19 28 -20 30 -2 17 11 -8 39 -33
63 -55z"/>
<path d="M4685 7927 c-548 -7 -645 -11 -645 -25 0 -9 240 -6 750 8 195 6 648
11 1005 12 358 1 634 3 615 4 -83 8 -1212 8 -1725 1z"/>
<path d="M6540 7920 l-65 -7 72 -1 c39 -1 75 3 78 8 3 6 0 9 -7 8 -7 -1 -42
-4 -78 -8z"/>
<path d="M2167 7913 c-12 -12 -7 -25 7 -20 8 3 128 7 268 8 139 1 262 5 273
10 11 4 -106 8 -261 8 -154 1 -284 -2 -287 -6z"/>
<path d="M7970 7910 c17 -11 159 -11 300 0 80 6 64 7 -110 8 -135 1 -200 -2
-190 -8z"/>
<path d="M4348 7800 c-251 -4 -320 -8 -330 -19 -11 -11 -9 -13 12 -8 14 3 493
9 1065 13 572 3 1065 10 1095 14 62 8 -1351 9 -1842 0z"/>
<path d="M2075 7790 c-4 -7 100 -10 304 -10 201 0 311 4 311 10 0 6 -108 10
-304 10 -193 0 -307 -4 -311 -10z"/>
<path d="M8120 7790 c0 -11 115 -11 340 0 141 6 138 7 -97 8 -157 1 -243 -2
-243 -8z"/>
<path d="M5036 7683 c-1 -1 -253 -4 -560 -7 -307 -3 -561 -8 -564 -11 -9 -9
2506 -3 2520 6 7 5 -113 10 -267 11 -333 4 -1126 4 -1129 1z"/>
<path d="M8385 7681 c-95 -3 -164 -10 -157 -14 15 -10 504 -5 494 5 -12 12
-155 15 -337 9z"/>
<path d="M1997 7674 c-4 -4 -5 -10 -3 -13 7 -10 686 -1 686 9 0 11 -672 14
-683 4z"/>
<path d="M6328 7555 c-3 -3 -445 -5 -983 -5 -538 0 -977 -2 -974 -4 2 -2 441
-7 975 -10 849 -5 974 -4 984 9 12 14 10 22 -2 10z"/>
<path d="M3945 7540 c3 -5 16 -10 28 -9 21 0 21 1 2 9 -28 12 -37 12 -30 0z"/>
<path d="M8408 7543 c34 -2 90 -2 125 0 34 2 6 3 -63 3 -69 0 -97 -1 -62 -3z"/>
<path d="M2293 7533 c75 -2 199 -2 275 0 75 1 13 3 -138 3 -151 0 -213 -2
-137 -3z"/>
<path d="M4123 7533 c42 -2 112 -2 155 0 42 1 7 3 -78 3 -85 0 -120 -2 -77 -3z"/>
<path d="M8708 7533 c18 -2 45 -2 60 0 15 2 0 4 -33 4 -33 0 -45 -2 -27 -4z"/>
<path d="M8481 7425 c4 -3 89 -9 190 -12 101 -3 182 -3 179 -1 -3 3 -88 9
-190 13 -102 4 -182 4 -179 0z"/>
<path d="M1862 7414 c4 -3 181 -7 395 -9 287 -2 342 -1 213 5 -214 9 -616 12
-608 4z"/>
<path d="M4753 7413 c268 -2 706 -2 975 0 268 1 48 2 -488 2 -536 0 -756 -1
-487 -2z"/>
<path d="M1372 7268 c-41 -76 -82 -184 -82 -218 0 -11 6 -20 14 -20 7 0 85
-36 172 -80 88 -44 164 -80 170 -80 6 0 16 17 22 38 6 20 26 78 46 127 57 149
61 135 -46 174 -161 58 -238 92 -238 106 0 37 -22 18 -58 -47z"/>
<path d="M4262 7295 c3 -4 311 -9 684 -11 373 -3 675 -2 672 1 -3 3 -311 8
-684 11 -373 3 -676 2 -672 -1z"/>
<path d="M5708 7293 c17 -2 47 -2 65 0 17 2 3 4 -33 4 -36 0 -50 -2 -32 -4z"/>
<path d="M8820 7290 l-65 -7 78 -1 c50 -1 76 2 72 8 -3 6 -9 9 -13 8 -4 -1
-36 -4 -72 -8z"/>
<path d="M1915 7279 c50 -4 117 -7 150 -7 l60 1 -50 7 c-27 5 -95 8 -150 8
l-100 -1 90 -8z"/>
<path d="M2378 7283 c79 -2 205 -2 280 0 75 1 11 3 -143 3 -154 0 -216 -2
-137 -3z"/>
<path d="M5873 7283 c26 -2 67 -2 90 0 23 2 2 3 -48 3 -49 0 -68 -1 -42 -3z"/>
<path d="M2707 7183 c18 -2 50 -2 70 0 21 2 7 4 -32 4 -38 0 -55 -2 -38 -4z"/>
<path d="M8808 7183 c29 -2 74 -2 100 0 26 2 2 3 -53 3 -55 0 -76 -1 -47 -3z"/>
<path d="M5020 7169 c322 -4 659 -4 750 0 103 5 -117 8 -585 8 l-750 0 585 -8z"/>
<path d="M3953 7153 c9 -2 25 -2 35 0 9 3 1 5 -18 5 -19 0 -27 -2 -17 -5z"/>
<path d="M1779 7106 c-35 -57 -80 -177 -77 -204 3 -23 18 -35 113 -84 144 -74
278 -128 450 -178 77 -23 166 -50 197 -61 38 -12 86 -19 140 -19 46 0 126 -9
178 -21 52 -11 149 -31 215 -44 240 -48 505 -104 526 -110 19 -6 20 -4 14 27
-33 168 -137 348 -203 353 -33 2 -27 -14 25 -62 25 -24 43 -46 40 -49 -3 -3
-45 8 -94 26 -194 69 -349 116 -568 171 -178 45 -215 57 -165 53 l65 -5 -40
25 c-64 41 -166 72 -374 117 -107 22 -246 53 -309 69 l-114 28 -19 -32z m421
-170 c41 -8 105 -25 142 -38 69 -26 294 -160 278 -166 -5 -2 -60 23 -122 57
-93 49 -311 133 -403 154 -48 11 34 6 105 -7z"/>
<path d="M2688 7063 c17 -2 47 -2 65 0 17 2 3 4 -33 4 -36 0 -50 -2 -32 -4z"/>
<path d="M5018 7058 c-13 -3 67 -6 177 -7 110 0 333 -2 495 -4 207 -3 259 -2
175 4 -154 10 -817 16 -847 7z"/>
<path d="M8900 7061 c14 -5 45 -5 70 -1 41 7 39 8 -25 8 -47 0 -62 -2 -45 -7z"/>
<path d="M3924 7048 c-6 -10 1 -11 41 -8 17 1 86 6 155 10 l125 8 -158 -1
c-87 -1 -161 -5 -163 -9z"/>
<path d="M4393 7053 c59 -2 154 -2 210 0 56 1 8 3 -108 3 -115 0 -161 -2 -102
-3z"/>
<path d="M4718 7053 c7 -3 16 -2 19 1 4 3 -2 6 -13 5 -11 0 -14 -3 -6 -6z"/>
<path d="M5355 6930 l-60 -7 63 -1 c36 -1 62 2 62 8 0 6 -1 9 -2 8 -2 -1 -30
-4 -63 -8z"/>
<path d="M1426 6845 c-24 -64 -133 -621 -123 -631 8 -9 136 49 142 64 28 68
49 143 70 242 14 63 33 150 43 192 l19 78 -21 13 c-18 12 -114 57 -121 57 -2
0 -5 -7 -9 -15z"/>
<path d="M4313 6813 c20 -2 54 -2 75 0 20 2 3 4 -38 4 -41 0 -58 -2 -37 -4z"/>
<path d="M4608 6813 c23 -2 59 -2 80 0 20 2 1 4 -43 4 -44 0 -61 -2 -37 -4z"/>
<path d="M4283 6703 c9 -2 23 -2 30 0 6 3 -1 5 -18 5 -16 0 -22 -2 -12 -5z"/>
<path d="M4933 6693 c9 -2 25 -2 35 0 9 3 1 5 -18 5 -19 0 -27 -2 -17 -5z"/>
<path d="M5107 6693 c18 -2 50 -2 70 0 21 2 7 4 -32 4 -38 0 -55 -2 -38 -4z"/>
<path d="M1045 6648 c-80 -48 -218 -62 -291 -29 l-41 19 4 -127 c6 -152 13
-167 97 -195 52 -17 65 -18 129 -6 58 10 77 19 109 49 l39 36 -8 136 -8 136
-30 -19z"/>
<path d="M4923 6473 c20 -2 54 -2 75 0 20 2 3 4 -38 4 -41 0 -58 -2 -37 -4z"/>
<path d="M4363 6463 c15 -2 39 -2 55 0 15 2 2 4 -28 4 -30 0 -43 -2 -27 -4z"/>
<path d="M4413 6353 c48 -2 125 -2 170 0 45 1 6 3 -88 3 -93 0 -130 -2 -82 -3z"/>
<path d="M4828 6353 c17 -2 47 -2 65 0 17 2 3 4 -33 4 -36 0 -50 -2 -32 -4z"/>
<path d="M10012 6308 c-15 -15 -15 -30 1 -52 12 -16 15 -16 54 1 36 16 40 21
32 41 -6 17 -16 22 -42 22 -18 0 -38 -5 -45 -12z"/>
<path d="M748 6254 c-4 -114 3 -230 17 -310 21 -112 83 -305 106 -329 15 -16
36 -21 97 -23 74 -4 85 -1 213 48 74 28 181 69 239 90 157 57 277 115 290 140
10 19 7 30 -20 73 -18 29 -48 81 -67 117 -19 36 -49 83 -66 103 l-32 38 -125
-51 c-68 -27 -128 -54 -133 -59 -4 -4 -12 -39 -18 -77 -10 -72 -29 -147 -36
-140 -2 2 1 32 7 66 11 62 6 140 -10 140 -5 0 -18 -30 -30 -66 -12 -36 -25
-63 -27 -60 -3 3 -9 41 -13 84 -7 79 -44 179 -85 227 -16 20 -16 20 -10 -5 12
-51 18 -247 7 -254 -12 -7 -22 74 -25 207 l-2 88 -30 -6 c-95 -19 -157 -16
-229 11 -14 5 -16 -3 -18 -52z"/>
<path d="M9900 6259 c0 -16 42 -48 63 -49 21 0 22 9 1 38 -16 23 -64 31 -64
11z"/>
<path d="M4633 6253 c9 -2 25 -2 35 0 9 3 1 5 -18 5 -19 0 -27 -2 -17 -5z"/>
<path d="M10082 6240 c-31 -13 -37 -34 -16 -65 16 -24 22 -26 57 -22 57 8 64
19 37 61 -22 37 -38 42 -78 26z"/>
<path d="M9852 6212 c-38 -4 -52 -27 -30 -48 13 -13 22 -12 72 7 32 11 54 25
49 29 -12 11 -53 17 -91 12z"/>
<path d="M9930 6160 c-30 -22 -55 -44 -54 -48 1 -20 17 -62 23 -62 4 0 35 9
70 21 34 12 65 18 69 14 4 -4 9 -554 12 -1222 4 -1015 7 -1217 19 -1221 11 -4
13 190 10 1229 l-4 1234 55 18 c52 17 101 47 55 34 -11 -3 -47 -14 -79 -24
l-59 -17 -16 24 c-42 64 -41 63 -101 20z m87 -47 c-9 -9 -27 7 -27 24 0 13 -2
13 -17 2 -15 -13 -15 -12 -4 9 l12 23 21 -26 c11 -14 18 -29 15 -32z"/>
<path d="M4338 6143 c6 -2 18 -2 25 0 6 3 1 5 -13 5 -14 0 -19 -2 -12 -5z"/>
<path d="M4568 6023 c7 -3 16 -2 19 1 4 3 -2 6 -13 5 -11 0 -14 -3 -6 -6z"/>
<path d="M1343 5592 c-74 -30 -72 -20 -48 -220 76 -623 264 -1142 601 -1659
40 -62 79 -114 86 -114 20 -3 163 3 166 6 2 1 -7 21 -18 43 -20 38 -20 43 -7
84 8 24 20 62 27 86 6 24 14 50 17 59 4 10 2 14 -4 10 -6 -4 11 44 39 105 49
111 88 239 87 288 0 22 -9 15 -75 -55 -41 -44 -111 -126 -156 -182 -45 -57
-87 -103 -94 -103 -28 0 -25 24 8 58 19 21 54 62 78 92 24 30 90 102 147 160
l103 106 7 67 6 67 -67 0 -66 0 0 164 0 165 53 4 52 3 -53 2 -53 2 3 125 4
125 -29 0 c-27 0 -29 -2 -22 -27 4 -16 8 -73 9 -127 l1 -99 -90 0 c-76 0 -79
-1 -20 -4 127 -6 118 6 111 -141 -3 -70 -5 -142 -6 -159 l0 -33 -142 0 c-79 0
-173 -3 -210 -7 l-68 -6 0 -41 c0 -41 0 -40 -40 44 -70 150 -164 472 -200 690
-6 41 -16 98 -20 125 -5 28 -12 75 -15 105 -14 129 -28 220 -34 219 -3 -1 -34
-13 -68 -27z m797 -1742 c-6 -11 -13 -20 -16 -20 -2 0 0 9 6 20 6 11 13 20 16
20 2 0 0 -9 -6 -20z"/>
<path d="M1558 5383 c12 -2 30 -2 40 0 9 3 -1 5 -23 4 -22 0 -30 -2 -17 -4z"/>
<path d="M7125 5309 c-224 -62 -411 -113 -565 -154 -96 -26 -229 -63 -295 -83
-115 -36 -125 -37 -260 -36 -77 1 -198 6 -270 12 -117 9 -137 8 -205 -10 -77
-20 -345 -81 -550 -124 -121 -26 -357 -80 -600 -139 -80 -19 -188 -42 -240
-51 -112 -18 -133 -29 -37 -19 47 5 67 4 67 -4 0 -6 7 -11 15 -11 8 0 15 7 15
15 0 10 10 15 30 15 25 0 30 -4 30 -24 0 -13 3 -37 6 -53 5 -25 2 -31 -15 -36
-12 -3 -21 -1 -21 5 0 5 -7 3 -15 -6 -9 -8 -23 -12 -32 -9 -11 4 -14 2 -11 -8
4 -13 118 -23 312 -28 27 0 47 -3 44 -6 -3 -3 -139 -7 -303 -9 -240 -3 -299
-6 -306 -17 -13 -20 -23 -79 -14 -87 10 -10 982 -5 1345 7 392 14 694 28 870
41 74 5 236 14 360 20 124 6 259 13 300 16 l75 6 -3 265 c-2 179 0 269 8 277
5 8 33 16 60 20 28 4 57 9 66 13 14 5 15 -25 12 -291 l-3 -296 -52 0 c-41 0
-53 -4 -57 -17 -2 -10 -8 -80 -11 -155 l-7 -138 -107 0 c-58 0 -124 -2 -146
-5 -32 -4 -35 -3 -15 4 14 5 65 9 113 10 l88 1 -2 125 -2 125 -76 0 c-42 0
-251 -11 -466 -24 -214 -14 -465 -27 -556 -31 -91 -3 -174 -8 -185 -10 -10 -2
-86 -4 -169 -4 l-150 -1 0 -148 0 -149 75 4 c99 4 372 20 700 39 365 21 405
21 529 -11 132 -33 224 -50 383 -70 70 -9 161 -22 201 -30 41 -8 148 -23 238
-35 90 -11 227 -31 304 -45 173 -30 382 -53 563 -62 117 -6 130 -8 92 -16 -79
-15 -471 16 -660 53 -52 10 -151 25 -220 34 -131 18 -448 66 -610 93 -52 8
-176 33 -275 55 -204 45 -163 44 -705 13 -292 -17 -644 -34 -647 -31 -2 1 -11
200 -12 264 l-1 34 -617 -7 c-340 -4 -622 -11 -628 -16 -5 -6 -5 -9 1 -9 6 0
9 -17 7 -40 -2 -27 1 -40 10 -40 8 0 7 -4 -3 -10 -13 -9 -13 -10 0 -10 13 0
13 -1 0 -10 -13 -9 -13 -10 0 -10 13 0 13 -1 0 -10 -11 -7 -11 -10 -2 -10 7 0
11 -4 8 -9 -4 -5 -2 -11 4 -13 5 -1 11 -15 12 -30 1 -17 8 -28 18 -28 13 0 13
-1 0 -10 -12 -7 -12 -10 -1 -10 7 0 11 -6 7 -15 -3 -8 -1 -15 4 -15 5 0 7 -7
3 -17 -6 -15 12 -16 223 -10 126 4 324 14 439 22 203 15 572 29 470 18 l-50
-6 55 -12 c30 -7 120 -36 200 -64 229 -81 319 -101 452 -101 62 0 143 5 180
10 127 19 563 50 673 49 l110 -2 -110 -8 c-296 -23 -610 -52 -704 -65 -78 -11
-118 -12 -159 -4 -31 5 -57 8 -59 6 -2 -2 72 -28 164 -59 92 -30 191 -64 218
-75 28 -11 99 -34 158 -51 110 -32 177 -60 210 -89 33 -29 173 -19 592 42 94
14 276 37 405 51 129 14 325 37 435 50 291 36 521 63 593 70 35 3 73 10 85 14
20 8 18 10 -18 19 -22 6 -72 16 -112 23 -40 7 -67 16 -62 20 14 8 -102 24
-321 44 -91 8 -214 23 -275 34 -60 11 -157 25 -215 31 -153 17 -386 47 -530
70 -176 27 -429 60 -467 60 -17 0 -35 5 -39 12 -11 18 144 4 456 -42 151 -22
370 -51 485 -65 116 -14 246 -32 290 -40 116 -21 203 -33 350 -45 72 -6 180
-22 240 -35 61 -13 171 -33 245 -45 74 -12 138 -24 143 -27 16 -10 -5 -22 -51
-29 -26 -3 -74 -12 -107 -20 -54 -11 -226 -34 -600 -79 -71 -8 -157 -20 -190
-25 -33 -6 -188 -24 -345 -40 -303 -32 -469 -56 -485 -71 -5 -5 352 -8 900 -7
l910 3 58 87 c213 323 391 686 471 966 19 64 38 125 41 135 8 19 22 24 115 35
l65 7 -60 23 c-33 13 -125 37 -205 53 -220 46 -454 97 -560 124 -52 13 -131
31 -175 39 -176 34 -618 126 -694 146 -151 38 -535 110 -584 109 -18 0 -63 -9
-102 -20z m55 -484 l0 -315 -64 0 c-35 0 -71 3 -79 6 -13 5 -14 47 -10 297 2
161 7 295 11 299 8 7 87 25 120 27 l22 1 0 -315z m261 304 l76 -12 -2 -271
c-1 -149 -2 -283 -3 -298 l-2 -28 -90 0 -90 0 0 310 c0 289 1 310 18 310 9 0
51 -5 93 -11z m219 -43 l45 -11 -4 -265 c-2 -146 -5 -268 -8 -272 -2 -5 -38
-8 -79 -8 l-74 0 0 290 0 291 38 -7 c20 -4 57 -12 82 -18z m-833 -168 c-4 -83
-7 -202 -7 -265 l0 -114 -62 3 -63 3 0 249 0 250 50 12 c96 23 89 35 82 -138z
m1023 132 l25 -6 6 -245 c3 -134 4 -246 3 -247 -1 -2 -39 -6 -84 -9 l-81 -6 5
134 c3 74 5 194 5 266 l1 133 48 -7 c26 -3 58 -9 72 -13z m-1184 -262 c-3
-286 8 -254 -86 -250 l-40 2 2 237 3 238 55 11 c30 7 58 12 62 13 3 0 5 -113
4 -251z m1357 235 c4 -2 7 -107 7 -233 l0 -229 -33 -6 c-19 -4 -47 -5 -63 -3
l-29 3 -3 243 -2 243 57 -7 c32 -3 61 -8 66 -11z m-1500 -26 c2 -7 2 -113 -1
-235 l-5 -223 -85 3 -86 3 0 217 c-1 160 2 218 11 218 6 0 18 2 25 5 12 5 14
-29 11 -215 -3 -148 -1 -220 6 -220 7 0 12 75 13 218 l3 217 45 12 c59 15 57
15 63 0z m1744 -14 c10 -4 13 -48 13 -209 l0 -204 -70 0 -70 0 0 216 0 216 57
-7 c31 -4 62 -9 70 -12z m154 -29 c7 -4 9 -26 5 -63 -3 -31 -8 -112 -12 -181
-3 -69 -7 -126 -7 -126 -1 -1 -26 -4 -54 -8 l-53 -7 0 202 0 202 55 -6 c30 -3
60 -9 66 -13z m-2573 -206 l-3 -201 -75 2 c-41 1 -76 3 -77 5 -1 1 -3 90 -5
199 l-3 197 83 0 82 0 -2 -202z m170 0 l-3 -203 -72 -3 -73 -3 0 199 c0 109 3
202 7 205 3 4 37 7 75 7 l68 0 -2 -202z m2507 186 c44 -9 89 -18 100 -21 19
-4 20 -11 17 -164 l-3 -160 -92 2 c-51 0 -99 -1 -107 -3 -13 -2 -15 10 -12 77
3 95 13 285 15 285 1 0 38 -7 82 -16z m-2945 -199 l0 -185 -45 0 -45 0 0 179
c0 197 -3 187 63 190 l27 1 0 -185z m-102 -10 l1 -175 -52 0 -53 0 3 163 c2
89 5 168 8 175 3 7 22 12 48 12 l44 0 1 -175z m3510 121 c1 -2 6 -54 9 -116
l6 -112 -62 4 c-33 1 -61 0 -61 -4 0 -5 -29 -8 -65 -8 l-65 0 0 138 0 138 117
-18 c65 -11 119 -21 121 -22z m-3640 -88 c-2 -68 1 -142 5 -165 l9 -43 -41 0
-41 0 0 58 c0 31 -5 99 -10 151 -12 107 -6 121 47 121 l34 0 -3 -122z m-95 50
c4 -29 10 -99 13 -155 8 -114 11 -108 -59 -96 l-39 6 4 136 c1 75 7 142 11
149 5 6 21 12 36 12 27 0 29 -3 34 -52z m-106 -108 c-1 -95 -6 -140 -13 -140
-6 0 -25 -3 -42 -6 l-31 -6 0 140 c0 152 -1 150 56 151 l33 1 -3 -140z m3929
129 l45 -12 -7 -91 c-3 -50 -7 -92 -8 -92 0 -1 -20 -5 -43 -9 l-43 -7 0 80 c0
44 -3 94 -6 111 -7 35 -4 36 62 20z m-4046 -88 c0 -48 3 -109 6 -135 l7 -46
-36 0 -35 0 -7 78 c-10 127 -13 133 -11 24 1 -100 0 -102 -21 -102 -22 0 -23
3 -23 88 0 48 -5 94 -10 102 -7 10 -10 -16 -8 -88 3 -104 1 -110 -36 -96 -12
5 -16 21 -17 63 0 31 -4 80 -8 109 -4 29 -4 55 -1 57 4 3 34 6 66 9 33 2 66 6
74 9 37 13 45 15 53 16 4 1 7 -39 7 -88z m-218 -61 c3 -93 1 -110 -12 -110
-11 0 -15 10 -15 33 0 17 -2 59 -6 92 -5 56 -6 53 -7 -32 -2 -70 -5 -93 -15
-93 -10 0 -16 29 -23 105 l-9 104 30 4 c17 2 35 5 42 5 8 2 13 -30 15 -108z
m-97 -7 c5 -78 4 -93 -8 -93 -11 0 -17 22 -23 93 -6 59 -6 94 1 99 17 13 23
-5 30 -99z m-46 -55 c1 -34 -2 -38 -24 -38 -23 0 -25 3 -25 53 0 28 -3 68 -6
89 -6 33 -4 37 17 40 22 3 25 -1 30 -52 4 -30 7 -72 8 -92z m-79 85 c0 -27 3
-65 7 -86 6 -37 5 -39 -18 -35 -23 3 -24 7 -27 86 -3 77 -2 82 18 82 17 0 20
-6 20 -47z m-70 -15 c0 -29 3 -63 6 -75 4 -16 2 -23 -7 -23 -28 0 -40 18 -46
70 -5 45 -3 55 12 66 30 22 35 17 35 -38z m-150 -29 c0 -46 -3 -59 -15 -59
-12 0 -15 13 -15 58 0 32 3 62 6 65 15 15 24 -8 24 -64z m30 6 c0 -37 -4 -65
-10 -65 -6 0 -10 28 -10 65 0 37 4 65 10 65 6 0 10 -28 10 -65z m30 0 c0 -37
-4 -65 -10 -65 -6 0 -10 28 -10 65 0 37 4 65 10 65 6 0 10 -28 10 -65z m30 -6
c0 -44 -4 -68 -10 -64 -5 3 -10 35 -10 71 0 36 4 64 10 64 6 0 10 -30 10 -71z
m-130 9 c0 -29 -5 -60 -10 -68 -6 -9 -10 -11 -10 -3 0 7 -7 10 -15 7 -12 -5
-15 5 -15 55 0 58 1 61 25 61 24 0 25 -3 25 -52z m4730 -114 c-25 -8 -126 -19
-230 -24 -201 -11 -425 -27 -480 -35 -50 -8 -510 -42 -807 -61 -188 -12 -282
-14 -370 -6 -110 8 -113 9 -43 11 141 2 595 31 810 50 118 11 260 23 315 27
55 3 108 8 118 10 9 1 160 10 335 19 174 9 324 17 332 19 8 2 26 4 40 4 17 0
11 -5 -20 -14z m-3123 -176 c-3 -8 -6 -5 -6 6 -1 11 2 17 5 13 3 -3 4 -12 1
-19z m220 -10 c-3 -8 -6 -5 -6 6 -1 11 2 17 5 13 3 -3 4 -12 1 -19z m20 0 c-3
-8 -6 -5 -6 6 -1 11 2 17 5 13 3 -3 4 -12 1 -19z m20 0 c-3 -8 -6 -5 -6 6 -1
11 2 17 5 13 3 -3 4 -12 1 -19z m-110 -10 c-3 -8 -6 -5 -6 6 -1 11 2 17 5 13
3 -3 4 -12 1 -19z m-590 -20 c-3 -7 -5 -2 -5 12 0 14 2 19 5 13 2 -7 2 -19 0
-25z m780 -5 c-3 -10 -5 -4 -5 12 0 17 2 24 5 18 2 -7 2 -21 0 -30z m-1397 -8
c0 -5 -5 -3 -10 5 -5 8 -10 20 -10 25 0 6 5 3 10 -5 5 -8 10 -19 10 -25z m497
-12 c-3 -10 -5 -2 -5 17 0 19 2 27 5 18 2 -10 2 -26 0 -35z m-1230 15 c-3 -8
-6 -5 -6 6 -1 11 2 17 5 13 3 -3 4 -12 1 -19z m20 0 c-3 -8 -6 -5 -6 6 -1 11
2 17 5 13 3 -3 4 -12 1 -19z m20 0 c-3 -8 -6 -5 -6 6 -1 11 2 17 5 13 3 -3 4
-12 1 -19z m70 0 c-3 -8 -6 -5 -6 6 -1 11 2 17 5 13 3 -3 4 -12 1 -19z m60 0
c-3 -8 -6 -5 -6 6 -1 11 2 17 5 13 3 -3 4 -12 1 -19z m463 -13 c0 -19 -4 -35
-8 -35 -4 0 -6 16 -4 35 2 19 6 35 8 35 2 0 4 -16 4 -35z m117 13 c-3 -8 -6
-5 -6 6 -1 11 2 17 5 13 3 -3 4 -12 1 -19z m20 0 c-3 -8 -6 -5 -6 6 -1 11 2
17 5 13 3 -3 4 -12 1 -19z m330 0 c-3 -8 -6 -5 -6 6 -1 11 2 17 5 13 3 -3 4
-12 1 -19z m900 0 c-3 -8 -6 -5 -6 6 -1 11 2 17 5 13 3 -3 4 -12 1 -19z m20 0
c-3 -8 -6 -5 -6 6 -1 11 2 17 5 13 3 -3 4 -12 1 -19z m20 0 c-3 -8 -6 -5 -6 6
-1 11 2 17 5 13 3 -3 4 -12 1 -19z m110 -10 c-3 -7 -5 -2 -5 12 0 14 2 19 5
13 2 -7 2 -19 0 -25z m140 10 c-3 -8 -6 -5 -6 6 -1 11 2 17 5 13 3 -3 4 -12 1
-19z m-1910 -10 c-3 -8 -6 -5 -6 6 -1 11 2 17 5 13 3 -3 4 -12 1 -19z m20 -15
c-3 -10 -5 -4 -5 12 0 17 2 24 5 18 2 -7 2 -21 0 -30z m20 15 c-3 -8 -6 -5 -6
6 -1 11 2 17 5 13 3 -3 4 -12 1 -19z m790 -10 c-3 -7 -5 -2 -5 12 0 14 2 19 5
13 2 -7 2 -19 0 -25z m69 -15 c1 -8 -4 -8 -18 0 -10 7 -18 20 -18 29 0 17 1
17 18 1 10 -10 18 -23 18 -30z m191 25 c-3 -8 -6 -5 -6 6 -1 11 2 17 5 13 3
-3 4 -12 1 -19z m33 12 c0 10 3 11 8 4 4 -7 18 -14 32 -17 16 -3 10 -5 -17 -6
-35 -1 -43 2 -43 17 0 14 2 15 10 2 9 -13 10 -13 10 0z m210 -5 c0 -11 -10
-15 -32 -14 -31 2 -31 2 -5 6 15 2 27 9 27 14 0 5 2 9 5 9 3 0 5 -7 5 -15z
m17 -17 c-3 -7 -5 -2 -5 12 0 14 2 19 5 13 2 -7 2 -19 0 -25z m20 10 c-3 -8
-6 -5 -6 6 -1 11 2 17 5 13 3 -3 4 -12 1 -19z m32 -2 c1 6 14 9 30 6 21 -3 28
-8 24 -19 -5 -12 -7 -12 -14 -1 -7 10 -9 8 -10 -7 l0 -20 -9 20 -9 20 0 -20
c-1 -15 -3 -17 -10 -6 -7 11 -9 11 -14 0 -3 -8 -5 2 -6 21 0 28 2 31 9 15 5
-11 9 -15 9 -9z m122 9 c6 17 8 17 8 3 1 -10 8 -18 16 -18 8 0 15 -4 15 -9 0
-15 -55 4 -56 20 -1 11 0 11 4 -1 4 -12 6 -11 13 5z m-1254 -17 c-3 -8 -6 -5
-6 6 -1 11 2 17 5 13 3 -3 4 -12 1 -19z m-820 -10 c-3 -8 -6 -5 -6 6 -1 11 2
17 5 13 3 -3 4 -12 1 -19z m1528 12 c3 -6 -1 -7 -9 -4 -18 7 -21 14 -7 14 6 0
13 -4 16 -10z m58 -7 c-7 -2 -21 -2 -30 0 -10 3 -4 5 12 5 17 0 24 -2 18 -5z
m-446 -70 c-2 -16 -4 -5 -4 22 0 28 2 40 4 28 2 -13 2 -35 0 -50z m1120 35
c-3 -7 -5 -2 -5 12 0 14 2 19 5 13 2 -7 2 -19 0 -25z m-687 3 c0 -4 -11 -7
-25 -7 -14 0 -25 5 -25 12 0 7 10 9 25 6 14 -2 25 -7 25 -11z m517 -3 c-3 -8
-6 -5 -6 6 -1 11 2 17 5 13 3 -3 4 -12 1 -19z m320 -10 c-3 -7 -5 -2 -5 12 0
14 2 19 5 13 2 -7 2 -19 0 -25z m-2310 0 c-3 -8 -6 -5 -6 6 -1 11 2 17 5 13 3
-3 4 -12 1 -19z m20 0 c-3 -8 -6 -5 -6 6 -1 11 2 17 5 13 3 -3 4 -12 1 -19z
m237 14 c3 -5 -1 -9 -9 -9 -8 0 -12 4 -9 9 3 4 7 8 9 8 2 0 6 -4 9 -8z m143
-24 c-3 -7 -5 -2 -5 12 0 14 2 19 5 13 2 -7 2 -19 0 -25z m1716 25 c-7 -2 -19
-2 -25 0 -7 3 -2 5 12 5 14 0 19 -2 13 -5z m-2076 -25 c-3 -8 -6 -5 -6 6 -1
11 2 17 5 13 3 -3 4 -12 1 -19z m63 -23 c-6 -30 -8 -33 -9 -13 -1 25 8 62 14
56 2 -2 -1 -21 -5 -43z m47 23 c-3 -8 -6 -5 -6 6 -1 11 2 17 5 13 3 -3 4 -12
1 -19z m301 8 c-7 -8 -15 -10 -16 -5 -2 5 -8 7 -13 3 -5 -3 -9 0 -9 5 0 6 11
11 25 11 22 0 24 -2 13 -14z m369 8 c-3 -3 -12 -4 -19 -1 -8 3 -5 6 6 6 11 1
17 -2 13 -5z m380 -16 c-3 -8 -6 -5 -6 6 -1 11 2 17 5 13 3 -3 4 -12 1 -19z
m331 15 c-10 -2 -26 -2 -35 0 -10 3 -2 5 17 5 19 0 27 -2 18 -5z m689 1 c-3
-3 -12 -4 -19 -1 -8 3 -5 6 6 6 11 1 17 -2 13 -5z m-2250 -10 c-3 -3 -12 -4
-19 -1 -8 3 -5 6 6 6 11 1 17 -2 13 -5z m90 -16 c-3 -8 -6 -5 -6 6 -1 11 2 17
5 13 3 -3 4 -12 1 -19z m473 12 c0 -4 7 -7 15 -8 8 -1 22 -3 30 -4 8 -1 15 -8
16 -17 0 -12 3 -11 9 4 l9 20 0 -20 c1 -17 3 -17 11 -5 8 12 10 12 10 1 0 -8
7 -11 20 -8 11 3 20 0 20 -6 0 -7 5 -5 10 3 8 13 10 12 10 -3 0 -10 5 -15 10
-12 6 3 10 0 11 -7 0 -10 2 -10 6 0 8 21 33 13 34 -10 0 -13 3 -17 6 -10 2 6
9 12 14 12 6 0 7 -4 4 -10 -4 -6 15 -10 49 -10 31 0 56 -4 56 -8 0 -5 -18 -7
-40 -5 -30 2 -40 -1 -40 -12 0 -8 -6 -15 -12 -15 -18 0 -162 63 -166 73 -2 4
-7 5 -12 2 -5 -3 -14 0 -22 7 -14 13 -33 20 -55 21 -7 0 -13 4 -13 9 0 5 -4 7
-9 3 -5 -3 -12 -1 -16 5 -4 6 -11 8 -16 5 -5 -4 -9 -1 -9 5 0 5 14 9 30 8 17
-1 30 -5 30 -8z m737 -12 c-3 -8 -6 -5 -6 6 -1 11 2 17 5 13 3 -3 4 -12 1 -19z
m-1190 -10 c-3 -8 -6 -5 -6 6 -1 11 2 17 5 13 3 -3 4 -12 1 -19z m730 16 c-3
-3 -12 -4 -19 -1 -8 3 -5 6 6 6 11 1 17 -2 13 -5z m-870 -26 c-3 -8 -6 -5 -6
6 -1 11 2 17 5 13 3 -3 4 -12 1 -19z m29 2 c0 -11 -4 -20 -8 -20 -4 0 -9 -10
-9 -22 -1 -21 -2 -21 -7 -3 l-5 20 -8 -20 c-7 -18 -8 -18 -8 -2 -1 11 -6 15
-13 11 -7 -4 -8 -3 -4 4 4 7 16 12 27 12 12 0 19 7 19 20 0 11 4 20 8 20 4 0
8 -9 8 -20z m301 -12 c-3 -7 -5 -2 -5 12 0 14 2 19 5 13 2 -7 2 -19 0 -25z
m20 0 c-3 -7 -5 -2 -5 12 0 14 2 19 5 13 2 -7 2 -19 0 -25z m1750 10 c-3 -8
-6 -5 -6 6 -1 11 2 17 5 13 3 -3 4 -12 1 -19z m100 9 c11 4 14 2 9 -5 -4 -7
-18 -12 -32 -12 -21 0 -23 2 -12 14 7 8 14 10 16 6 2 -5 10 -6 19 -3z m181 6
c-10 -2 -26 -2 -35 0 -10 3 -2 5 17 5 19 0 27 -2 18 -5z m70 0 c-10 -2 -26 -2
-35 0 -10 3 -2 5 17 5 19 0 27 -2 18 -5z m-2271 -25 c-3 -8 -6 -5 -6 6 -1 11
2 17 5 13 3 -3 4 -12 1 -19z m130 -10 c-3 -7 -5 -2 -5 12 0 14 2 19 5 13 2 -7
2 -19 0 -25z m530 26 c-3 -3 -12 -4 -19 -1 -8 3 -5 6 6 6 11 1 17 -2 13 -5z
m860 -10 c-3 -3 -12 -4 -19 -1 -8 3 -5 6 6 6 11 1 17 -2 13 -5z m380 -16 c-3
-8 -6 -5 -6 6 -1 11 2 17 5 13 3 -3 4 -12 1 -19z m261 15 c-16 -2 -40 -2 -55
0 -16 2 -3 4 27 4 30 0 43 -2 28 -4z m82 -1 c0 -4 -11 -8 -25 -8 -14 0 -25 4
-25 8 0 4 11 8 25 8 14 0 25 -4 25 -8z m40 4 c0 -2 -7 -6 -15 -10 -8 -3 -15
-1 -15 4 0 6 7 10 15 10 8 0 15 -2 15 -4z m-984 -30 c2 -14 1 -14 -3 1 -5 16
-6 16 -14 -2 -7 -19 -8 -18 -8 3 -1 27 23 25 25 -2z m1067 17 c-7 -2 -19 -2
-25 0 -7 3 -2 5 12 5 14 0 19 -2 13 -5z m-2596 -25 c-3 -8 -6 -5 -6 6 -1 11 2
17 5 13 3 -3 4 -12 1 -19z m1796 15 c-7 -2 -19 -2 -25 0 -7 3 -2 5 12 5 14 0
19 -2 13 -5z m122 -13 c7 0 15 5 17 12 3 7 7 6 11 -5 5 -14 0 -17 -28 -17 -28
0 -33 3 -28 17 4 11 8 12 11 5 2 -7 10 -12 17 -12z m115 11 c0 -6 -5 -13 -12
-17 -6 -4 -8 -3 -4 4 3 5 0 13 -6 15 -8 3 -6 6 5 6 9 1 17 -3 17 -8z m-770
-16 c0 -8 -4 -15 -10 -15 -5 0 -7 7 -4 15 4 8 8 15 10 15 2 0 4 -7 4 -15z
m100 11 c0 -2 -7 -6 -15 -10 -8 -3 -15 -1 -15 4 0 6 7 10 15 10 8 0 15 -2 15
-4z m-213 -12 c-3 -3 -12 -4 -19 -1 -8 3 -5 6 6 6 11 1 17 -2 13 -5z m143 2
c0 -3 -4 -8 -10 -11 -5 -3 -10 -1 -10 4 0 6 5 11 10 11 6 0 10 -2 10 -4z m93
-16 c-3 -12 -8 -19 -11 -16 -5 6 5 36 12 36 2 0 2 -9 -1 -20z m1130 3 c-7 -2
-19 -2 -25 0 -7 3 -2 5 12 5 14 0 19 -2 13 -5z m-1826 -35 c-3 -7 -5 -2 -5 12
0 14 2 19 5 13 2 -7 2 -19 0 -25z m20 0 c-3 -7 -5 -2 -5 12 0 14 2 19 5 13 2
-7 2 -19 0 -25z m20 0 c-3 -7 -5 -2 -5 12 0 14 2 19 5 13 2 -7 2 -19 0 -25z
m693 22 c0 -5 -2 -10 -4 -10 -3 0 -8 5 -11 10 -3 6 -1 10 4 10 6 0 11 -4 11
-10z m-1213 -32 c-3 -7 -5 -2 -5 12 0 14 2 19 5 13 2 -7 2 -19 0 -25z m110 -5
c-3 -10 -5 -4 -5 12 0 17 2 24 5 18 2 -7 2 -21 0 -30z m80 0 c-3 -10 -5 -4 -5
12 0 17 2 24 5 18 2 -7 2 -21 0 -30z m20 0 c-3 -10 -5 -4 -5 12 0 17 2 24 5
18 2 -7 2 -21 0 -30z m20 0 c-3 -10 -5 -4 -5 12 0 17 2 24 5 18 2 -7 2 -21 0
-30z m50 0 c-3 -10 -5 -4 -5 12 0 17 2 24 5 18 2 -7 2 -21 0 -30z m183 27 c0
-5 -10 -10 -22 -9 -22 0 -22 1 -3 9 11 5 21 9 23 9 1 1 2 -3 2 -9z m463 3 c-7
-2 -19 -2 -25 0 -7 3 -2 5 12 5 14 0 19 -2 13 -5z m-626 -25 c-3 -8 -6 -5 -6
6 -1 11 2 17 5 13 3 -3 4 -12 1 -19z m20 0 c-3 -8 -6 -5 -6 6 -1 11 2 17 5 13
3 -3 4 -12 1 -19z m20 0 c-3 -8 -6 -5 -6 6 -1 11 2 17 5 13 3 -3 4 -12 1 -19z
m27 6 c3 -8 2 -12 -4 -9 -6 3 -10 10 -10 16 0 14 7 11 14 -7z m-384 -10 c0 -2
-17 -4 -37 -4 -24 0 -33 3 -25 9 12 7 62 4 62 -5z m-121 -11 c0 -11 -3 -13 -6
-5 -2 6 -9 12 -14 12 -6 0 -7 -5 -3 -12 4 -7 3 -8 -4 -4 -19 11 -14 26 8 26
13 0 20 -6 19 -17z m281 7 c0 -5 -2 -10 -4 -10 -3 0 -8 5 -11 10 -3 6 -1 10 4
10 6 0 11 -4 11 -10z m30 6 c0 -3 -4 -8 -10 -11 -5 -3 -10 -1 -10 4 0 6 5 11
10 11 6 0 10 -2 10 -4z"/>
<path d="M1524 5282 c5 -9 687 -5 695 4 2 2 -154 4 -348 4 -194 0 -350 -4
-347 -8z"/>
<path d="M2550 5150 c0 -5 5 -10 11 -10 5 0 7 5 4 10 -3 6 -8 10 -11 10 -2 0
-4 -4 -4 -10z"/>
<path d="M1588 5043 c17 -2 47 -2 65 0 17 2 3 4 -33 4 -36 0 -50 -2 -32 -4z"/>
<path d="M3991 4954 c0 -11 3 -14 6 -6 3 7 2 16 -1 19 -3 4 -6 -2 -5 -13z"/>
<path d="M1793 4933 c31 -2 83 -2 115 0 31 2 5 3 -58 3 -63 0 -89 -1 -57 -3z"/>
<path d="M4022 4835 c0 -16 2 -22 5 -12 2 9 2 23 0 30 -3 6 -5 -1 -5 -18z"/>
<path d="M1643 4823 c9 -2 25 -2 35 0 9 3 1 5 -18 5 -19 0 -27 -2 -17 -5z"/>
<path d="M4022 4780 c0 -14 2 -19 5 -12 2 6 2 18 0 25 -3 6 -5 1 -5 -13z"/>
<path d="M6811 4464 c0 -11 3 -14 6 -6 3 7 2 16 -1 19 -3 4 -6 -2 -5 -13z"/>
<path d="M6813 4295 c0 -38 2 -53 4 -32 2 20 2 52 0 70 -2 17 -4 1 -4 -38z"/>
<path d="M1290 4325 c0 -9 9 -15 25 -15 18 0 23 4 19 15 -4 8 -15 15 -25 15
-10 0 -19 -7 -19 -15z"/>
<path d="M1356 4273 c-6 -14 -5 -15 5 -6 7 7 10 15 7 18 -3 3 -9 -2 -12 -12z"/>
<path d="M4555 4069 c-143 -9 -309 -18 -370 -19 -60 -1 -135 -5 -165 -8 -52
-7 -55 -8 -61 -41 -4 -18 -18 -44 -32 -57 -17 -16 -28 -39 -33 -70 -6 -45 -1
-260 7 -268 3 -4 2296 -10 2447 -7 96 2 39 30 -263 126 -115 37 -242 80 -281
96 -100 39 -306 91 -314 79 -7 -11 -138 -25 -385 -40 -93 -6 -242 -15 -330
-20 -88 -6 -214 -17 -280 -24 -154 -19 -312 -30 -304 -22 3 3 68 13 145 21 76
8 173 20 214 25 41 6 138 14 215 20 608 41 709 51 693 66 -18 16 -322 119
-428 144 -99 23 -129 23 -475 -1z"/>
<path d="M9328 3975 c-2 -3 -13 -6 -24 -8 -10 -1 -20 -6 -21 -11 -1 -5 -7 -12
-14 -17 -8 -5 -14 -30 -15 -63 l-2 -56 60 0 59 0 -3 71 c-1 54 -6 73 -19 79
-9 5 -18 7 -21 5z"/>
<path d="M1131 3289 l34 -28 5 -333 c5 -322 6 -335 29 -385 30 -66 94 -126
179 -166 58 -28 78 -32 147 -32 151 0 259 65 322 193 l28 57 5 327 c5 323 5
327 28 358 13 17 22 32 20 33 -1 1 -65 1 -141 -1 l-139 -3 26 -24 26 -24 0
-318 c0 -293 -2 -320 -19 -349 -26 -43 -83 -68 -157 -69 -51 0 -67 5 -102 28
-71 50 -72 55 -72 405 0 263 2 311 15 322 35 29 16 35 -127 36 l-141 1 34 -28z"/>
<path d="M2072 3299 c14 -13 30 -33 36 -44 13 -27 25 -769 13 -818 -5 -22 -19
-49 -31 -62 l-22 -23 142 -1 142 0 -31 35 -31 35 0 261 c0 224 2 260 14 248 8
-8 42 -49 76 -90 107 -129 325 -363 409 -439 l82 -74 -3 454 c-3 451 -3 454
19 491 l22 37 -135 3 c-74 2 -134 2 -134 1 0 -1 11 -13 24 -26 34 -34 38 -79
29 -336 l-8 -225 -54 75 c-155 213 -436 509 -483 509 -13 0 -41 3 -63 6 l-40
6 27 -23z"/>
<path d="M3050 3311 c0 -3 12 -18 28 -34 l27 -28 0 -419 0 -419 -27 -28 -27
-28 140 0 c76 0 139 2 139 4 0 2 -11 16 -25 33 l-25 30 0 413 0 413 25 30 c14
17 25 31 25 33 0 2 -63 4 -140 4 -77 0 -140 -2 -140 -4z"/>
<path d="M4166 3313 c-131 -3 -138 -5 -117 -20 19 -13 22 -22 17 -52 -10 -67
-185 -564 -205 -584 -12 -12 -195 445 -221 551 -10 45 -10 56 4 77 l16 25
-135 0 -136 0 30 -37 c18 -23 66 -135 125 -288 52 -138 132 -334 177 -435 44
-102 83 -190 85 -196 5 -10 24 -10 80 2 16 3 32 27 62 96 58 133 130 315 210
533 90 245 96 258 133 300 17 19 27 34 23 33 -5 -1 -72 -4 -148 -5z"/>
<path d="M6030 3307 c0 -4 7 -16 16 -25 14 -13 16 -31 11 -104 -3 -48 -4 -88
-2 -88 2 0 27 11 57 25 50 23 63 25 226 25 96 0 172 -4 172 -9 0 -5 -20 -33
-43 -63 -24 -29 -83 -111 -131 -183 -86 -130 -187 -272 -238 -337 -31 -39 -91
-180 -80 -188 4 -3 164 -3 356 0 l350 5 -2 65 c-2 36 2 89 6 118 5 28 7 52 6
52 -2 0 -19 -17 -38 -37 l-34 -38 -187 -3 c-104 -2 -191 0 -196 5 -10 10 -4
18 112 160 142 174 295 430 315 527 7 35 14 69 16 75 2 9 -66 12 -277 12 -154
0 -310 3 -347 7 -38 5 -68 4 -68 -1z"/>
<path d="M6962 3312 l-133 -3 27 -32 27 -32 -7 -224 c-3 -123 -6 -311 -6 -417
0 -190 0 -193 -25 -222 l-25 -29 137 -2 c75 -1 140 -4 145 -7 18 -12 6 14 -16
34 -14 11 -27 36 -30 54 -8 55 -14 729 -6 787 5 40 13 58 31 72 13 9 22 19 19
21 -3 2 -65 2 -138 0z"/>
<path d="M8040 3314 c0 -4 12 -21 28 -37 l27 -28 -4 -407 c-2 -249 -7 -415
-13 -427 -6 -11 -20 -30 -31 -43 l-21 -22 343 2 342 3 2 117 2 117 -27 -30
-27 -29 -200 0 -201 0 0 110 0 110 154 0 c148 0 154 -1 170 -22 17 -23 17 -22
12 17 -3 22 -6 78 -6 124 0 81 -1 83 -18 68 -16 -14 -43 -17 -165 -17 l-147 0
0 109 0 109 173 4 c94 2 183 0 197 -5 13 -4 37 -23 52 -40 l27 -32 -7 35 c-4
19 -7 74 -7 123 l0 87 -305 0 c-168 0 -315 3 -327 6 -13 4 -23 3 -23 -2z"/>
<path d="M4389 3289 c12 -10 26 -31 30 -46 4 -15 5 -209 3 -431 l-4 -403 -25
-30 -25 -29 343 2 342 3 1 118 c1 64 0 117 -1 117 -1 0 -15 -13 -31 -30 l-30
-30 -201 0 -201 0 0 113 0 112 153 2 c124 1 155 -2 170 -15 16 -14 17 -9 17
98 0 109 -1 112 -18 97 -16 -14 -43 -17 -170 -17 l-152 0 0 110 0 110 196 0
196 0 32 -34 31 -34 0 119 0 119 -339 -2 c-327 -1 -338 -2 -317 -19z"/>
<path d="M5193 3282 l28 -29 3 -372 c5 -410 0 -475 -33 -502 -11 -9 -21 -19
-21 -22 0 -3 61 -5 135 -5 l136 -1 -26 30 c-24 29 -25 36 -25 163 l0 133 72 6
c48 4 77 2 86 -5 7 -7 31 -46 52 -88 21 -42 54 -103 74 -136 20 -32 36 -67 36
-76 0 -14 15 -17 110 -20 61 -2 110 -1 110 0 0 2 -17 23 -37 47 -50 56 -173
274 -173 306 0 17 10 29 37 44 145 78 180 343 62 465 -78 80 -98 84 -394 88
l-260 4 28 -30z m479 -153 c63 -34 63 -214 -1 -248 -13 -7 -69 -11 -148 -9
l-128 3 -3 119 c-1 66 0 126 2 133 7 17 247 19 278 2z"/>
<path d="M7215 3178 c0 -138 9 -157 40 -89 21 47 32 51 146 51 81 0 87 -1 93
-22 8 -33 7 -221 -4 -477 -10 -220 -10 -225 -35 -251 -14 -14 -25 -28 -25 -31
0 -2 63 -4 140 -5 77 0 140 1 140 3 0 2 -9 12 -19 22 -11 11 -23 36 -27 56 -4
21 -3 188 2 373 l9 336 100 -2 c105 -3 116 -8 150 -66 7 -12 10 20 10 108 l0
126 -360 -2 -360 -3 0 -127z"/>
<path d="M8804 3263 c4 -27 3 -77 -2 -113 -6 -36 -8 -67 -6 -69 2 -2 17 10 33
28 l29 31 111 0 111 0 0 -367 0 -367 -24 -25 -25 -26 149 0 149 0 -32 33 -32
33 -7 232 c-3 128 -6 289 -7 360 l-1 127 99 0 99 0 30 -34 c16 -19 32 -40 34
-48 11 -28 13 2 10 125 l-3 127 -361 0 -360 0 6 -47z"/>
<path d="M6560 1485 c-5 -13 -36 -52 -68 -87 l-60 -63 -7 83 -8 82 -39 0 c-37
0 -40 -2 -34 -22 3 -13 6 -101 6 -195 l0 -173 35 0 c34 0 35 1 35 43 0 58 8
81 31 96 27 16 40 5 97 -82 30 -48 48 -67 59 -63 8 3 25 6 39 6 22 0 19 7 -46
106 -39 58 -70 110 -70 115 0 5 28 43 61 85 34 41 60 76 58 78 -2 2 -21 6 -42
9 -33 5 -39 3 -47 -18z"/>
<path d="M2207 1493 c-3 -5 -5 -92 -6 -195 l-2 -188 45 0 45 0 3 107 3 107 51
-64 c99 -124 138 -160 172 -160 l32 0 0 200 0 200 -40 0 -40 0 0 -115 c0 -63
-4 -115 -8 -115 -11 0 -43 36 -74 82 -47 71 -126 148 -152 148 -14 0 -27 -3
-29 -7z"/>
<path d="M2835 1481 c-67 -30 -125 -114 -125 -178 0 -39 42 -122 76 -155 98
-92 261 -44 309 91 8 24 15 51 15 60 0 67 -64 161 -127 188 -44 18 -100 16
-148 -6z m123 -71 c100 -61 65 -220 -49 -220 -51 0 -75 13 -94 50 -41 79 8
190 85 190 14 0 40 -9 58 -20z"/>
<path d="M3220 1492 c0 -15 91 -235 127 -306 60 -120 74 -118 141 22 28 59 61
139 73 177 12 39 29 80 37 93 l15 23 -48 -3 -49 -3 -46 -118 c-51 -126 -56
-136 -69 -121 -9 9 -83 182 -95 222 -6 18 -15 22 -47 22 -21 0 -39 -4 -39 -8z"/>
<path d="M3822 1488 c-6 -6 -12 -18 -12 -26 0 -8 -21 -58 -46 -111 -49 -101
-104 -229 -104 -240 0 -11 84 -7 92 4 4 6 8 21 8 35 0 40 13 45 102 40 l82 -5
12 -40 c10 -39 12 -40 57 -43 26 -2 47 1 47 6 0 5 -37 94 -83 198 -79 180 -85
189 -113 192 -16 2 -35 -3 -42 -10z m58 -150 c33 -91 33 -88 -15 -88 -24 0
-46 4 -49 8 -8 14 27 112 40 112 7 0 17 -15 24 -32z"/>
<path d="M4219 1498 c0 -2 -3 -90 -6 -195 l-5 -193 41 0 41 0 0 59 c0 41 5 65
16 75 22 23 44 8 100 -69 42 -58 52 -65 82 -65 24 0 31 3 26 13 -5 8 -2 7 9
-2 37 -30 22 -2 -49 92 -41 54 -74 105 -74 113 0 9 31 50 70 92 l70 77 -51 3
c-49 3 -52 2 -92 -45 -23 -26 -57 -64 -74 -83 l-32 -35 -1 83 0 82 -35 0 c-19
0 -35 -1 -36 -2z"/>
<path d="M4960 1302 l0 -199 98 4 c53 3 112 9 130 15 78 24 132 102 132 191 0
65 -24 107 -88 152 -41 28 -50 30 -158 34 l-114 3 0 -200z m179 118 c13 0 38
-15 57 -34 30 -30 34 -40 34 -84 0 -80 -51 -121 -152 -122 l-28 0 0 119 c0
125 3 135 45 126 11 -3 31 -5 44 -5z"/>
<path d="M5590 1352 c0 -132 -2 -151 -18 -165 -25 -22 -44 -21 -65 3 -19 23
-47 26 -65 8 -20 -20 -13 -49 19 -79 57 -53 148 -30 188 49 17 33 20 61 22
183 l1 144 -41 3 -41 3 0 -149z"/>
<path d="M5961 1489 c-38 -15 -98 -67 -121 -105 -33 -52 -31 -138 2 -195 38
-65 92 -92 174 -87 77 5 106 23 152 99 31 50 33 60 30 121 -3 63 -6 70 -43
109 -61 63 -129 84 -194 58z m117 -96 c31 -19 45 -59 39 -113 -9 -83 -91 -124
-167 -85 -38 20 -50 43 -50 99 0 96 97 151 178 99z"/>
<path d="M8178 1491 c-95 -31 -133 -90 -126 -199 3 -55 9 -78 31 -111 62 -94
200 -108 276 -27 41 44 -7 85 -55 47 -15 -12 -37 -21 -51 -21 -36 0 -88 25
-107 51 -31 45 -11 160 31 173 28 9 156 4 141 -6 -10 -6 -9 -8 3 -8 18 0 39
19 39 37 0 20 -75 64 -117 68 -21 3 -50 0 -65 -4z"/>
<path d="M6905 1481 c-22 -9 -53 -41 -40 -41 4 0 -7 -10 -26 -23 -18 -12 -39
-34 -46 -47 -15 -30 -18 -134 -3 -125 5 3 7 0 4 -9 -3 -8 3 -19 15 -26 12 -6
21 -17 21 -24 0 -17 39 -52 73 -65 25 -10 27 -9 27 14 0 19 5 25 21 25 17 0
20 -5 17 -25 -5 -23 -2 -25 31 -25 20 0 46 7 59 15 30 22 67 89 87 158 21 72
12 99 -51 157 -37 34 -50 40 -86 40 -24 0 -52 2 -63 5 -11 2 -29 0 -40 -4z
m165 -140 c18 -64 -13 -138 -70 -161 -62 -26 -124 17 -135 93 -10 66 1 103 38
126 18 11 26 21 19 21 -7 0 -10 5 -7 11 4 6 14 8 22 5 9 -4 17 1 20 14 5 17
11 14 54 -28 27 -27 54 -63 59 -81z"/>
<path d="M7345 1480 c-4 -6 -11 -7 -17 -4 -5 4 -2 -6 7 -20 10 -15 23 -25 30
-22 7 2 18 -7 24 -20 6 -14 14 -23 19 -21 4 3 8 -7 9 -22 3 -43 85 -214 94
-199 5 8 8 2 6 -16 -3 -38 20 -45 33 -10 6 15 13 24 17 20 9 -8 38 36 69 104
26 56 44 170 28 170 -11 0 -74 -119 -74 -138 0 -7 -4 -11 -9 -8 -10 7 -21 -17
-21 -45 0 -53 -58 22 -110 141 -18 41 -37 81 -42 88 -12 15 -54 16 -63 2z"/>
<path d="M7828 1433 c-5 -182 6 -316 28 -334 23 -19 27 13 20 144 -11 200 -17
247 -32 247 -10 0 -14 -16 -16 -57z"/>
<path d="M1182 1269 c5 -16 7 -16 492 -20 221 -2 301 1 304 9 3 9 -57 12 -231
12 -128 0 -309 3 -402 7 -142 5 -167 4 -163 -8z"/>
<path d="M8640 1270 c0 -5 19 -11 43 -11 218 -7 757 1 757 11 0 7 -140 10
-400 10 -260 0 -400 -3 -400 -10z"/>
</g>
</svg>
